<?xml version="1.0" encoding="utf-8"?>
<!-- Generator: Adobe Illustrator 27.5.0, SVG Export Plug-In . SVG Version: 6.00 Build 0)  -->
<svg version="1.1" id="Layer_1" xmlns="http://www.w3.org/2000/svg" xmlns:xlink="http://www.w3.org/1999/xlink" x="0px" y="0px"
	 viewBox="0 0 4000 4000" style="enable-background:new 0 0 4000 4000;" xml:space="preserve">
<path style="fill:#FFFFFF;" d="M0,0h4000v4000H0V0z"/>
<g>
	<path style="fill:#6F1A0B;" d="M1773.9,2508.9c33.7,7.4,67.6,15.8,101.7,21.2c-7.7,65.3-11.7,131.2-18.6,196.7
		c-7.9,74.8-19.1,148.7-31.5,222.8c-2,2.3-4,4.6-6.2,6.7c-11.1,10.3-26.2,15.1-41.3,14.6c-21.9-0.7-40.7-10.8-55.6-26.1
		c3.7-23,11.7-45.3,15.6-68.5c13-79.1,20.3-160.1,27.1-240C1768.6,2594.3,1773.9,2551.1,1773.9,2508.9z"/>
	<path style="fill:#6F1A0B;" d="M2707.5,2047.6c7.3-11.9,21.2-52.1,31.2-57.4l1.3,13.5c-1.9,98.3-7.6,196.1-7.1,294.6
		c0.3,60.4,3.7,121.1,7,181.4c9.3,169.2,25.2,338.5,68.4,502.8c12.3,46.7,25.7,93.4,45.7,137.4c-0.6,0.9-1.3,1.8-1.9,2.6
		c-0.7,0.9-1.3,1.7-2,2.5s-1.4,1.6-2.2,2.4c-0.7,0.8-1.5,1.6-2.3,2.3c-0.8,0.8-1.6,1.5-2.4,2.2c-0.8,0.7-1.6,1.4-2.5,2.1
		c-0.8,0.7-1.7,1.3-2.6,1.9c-0.9,0.6-1.8,1.2-2.7,1.8s-1.8,1.1-2.8,1.7c-0.9,0.5-1.9,1.1-2.9,1.5c-1,0.5-1.9,1-2.9,1.4s-2,0.9-3,1.3
		c-1,0.4-2,0.8-3.1,1.1c-1,0.3-2.1,0.7-3.1,1s-2.1,0.6-3.1,0.8c-1.1,0.2-2.1,0.5-3.2,0.6c-13.7,2.4-28-0.2-39.3-8.5
		c-24.9-18.1-38.8-78.1-47.8-107.4c-49-160.2-80.3-324.2-102-490.1c-8.7-66.4-16.8-133.8-21-200.7c5.4-10,21.5-19.6,30.1-27.5
		c17-15.8,45.2-45.9,54.5-67c10.6-23.9,14.1-93.5,17.6-122.5c2.5-20.1,7.3-40.4,7.3-60.7C2710.8,2057.1,2709.6,2052.6,2707.5,2047.6
		z"/>
	<path style="fill:#963914;" d="M1044.4,2376.3c14.6,0.4,131.5,20.5,141.9,24.7c4.6,15.8,9,31.7,13.1,47.6
		c13.8,67.5,14.3,129,0.1,196.6c-6,28.4-14.5,57.5-15.8,86.6c-1.6,34.7-0.3,69.8-0.9,104.5c-1.7,108.4-2.4,217-9.3,325.2
		c-3.6,57.5-7,117.5-21.9,173.4c-2.7,10-5.2,19.7-15,24.9c-14.3,7.6-41.5,5.9-56.5,0.5c-16.4-5.8-26.9-15.9-34.6-31.3
		c5.9-17.9,14.3-35,20.4-52.9c10.9-32,17.8-67.7,21.9-101.2c4.7-38.2,2.8-76.7,0.5-115c-6.4-105.2-25.1-208.9-44-312.4
		c-19-103.8-40.9-202.3-17-307.8C1032.6,2418.5,1038,2397.3,1044.4,2376.3z"/>
	<path style="fill:#6A2A07;" d="M1044.4,2376.3c14.6,0.4,131.5,20.5,141.9,24.7c4.6,15.8,9,31.7,13.1,47.6c-0.6,0.4-1.1,0.9-1.7,1.3
		c-32.1,23.2-76.3,26.8-114.1,20.1c-22.9-4-42.3-10.5-56.2-30.3C1032.6,2418.5,1038,2397.3,1044.4,2376.3z"/>
	<path style="fill:#963914;" d="M2214.3,2575.2c6.5-2.2,10.5-4,15.5-8.8c6.4,23.3,12.6,46.5,17.9,70c3.7,19.7,7.3,39.3,8.7,59.4
		c5.5,82.8-12.5,169.1-23.4,251c-7.3,54.9-12.3,110.3-16.8,165.5c-11.9,142.3-8,281.7,6.6,423.7c-19,16.9-41.3,29.1-67.6,27.9
		c-18.6-0.9-41.8-7.2-54.6-21.3c-5.1-5.7-6.7-8.9-6-16.6c3.3-36.3,9.3-72.3,11.9-108.8c3.6-51.7,5.3-103.4,5.1-155.2
		s-2.4-103.5-6.5-155.1c-4.6-60.1-9.6-120.6-17.4-180.4c-14.3-109.3-33.1-174.6-15.7-288.6c4-22.7,10.5-45,16.8-67.1
		C2130.7,2577.1,2172.5,2590.3,2214.3,2575.2z"/>
	<path style="fill:#6A2A07;" d="M2214.3,2575.2c6.5-2.2,10.5-4,15.5-8.8c6.4,23.3,12.6,46.5,17.9,70
		c-30.3,23.5-67.3,29.7-104.9,24.9c-25.6-3.3-48.2-11.8-71.1-23.5c4-22.7,10.5-45,16.8-67.1
		C2130.7,2577.1,2172.5,2590.3,2214.3,2575.2z"/>
	<path style="fill:#963914;" d="M1813.3,1504.3c19.7-191.7-38.3-397.6-120.2-569.2c-26.4-55.2-73.6-135.9-84.2-193.1
		c-11.1-59.8,1.8-124.2,51-163.7c35.6-28.6,82.4-40.6,127.6-35.6c44.3,5,81.8,36.4,127.5,32.1c40.7-3.9,72.4-36.6,104.2-59.1
		c118.6-84.1,254.3-98.3,392.1-57.4c58.7,17.4,122.3,43.7,170.5,82c43.2,34.3,75.1,87.5,129.3,105.7c69.6,23.3,111.1-36.6,197,6.5
		c5.9,3,11.6,6.3,17.1,9.9c5.5,3.6,10.9,7.5,16,11.7s10,8.6,14.6,13.3s9,9.6,13.1,14.8c27.1,34.7,40.6,80.6,35.1,124.4
		c-2.7,21.2-9.5,42.1-18.7,61.3c-12.4,26-29.6,49.4-45.5,73.3c-24.3,36.3-48.9,72.6-71.3,110.1c-30.6,51.3-58.7,105.5-82.1,160.5
		c-4.9,11.5-9.5,23.1-13.9,34.8c-4.4,11.7-8.7,23.4-12.7,35.3c-4,11.8-7.8,23.7-11.4,35.7c-3.6,12-7,24-10.2,36.1
		s-6.1,24.2-8.9,36.4c-2.7,12.2-5.3,24.4-7.6,36.7c-2.3,12.3-4.4,24.6-6.2,36.9c-1.9,12.4-3.5,24.7-4.9,37.1
		c-4.5,38.1-5.9,76.5-10.4,114.5c20-8,38.8-12.2,59.6-3.2c18.6,8.1,33.9,25.3,41,44.2c0.5,1.2,0.9,2.5,1.3,3.8
		c0.4,1.3,0.8,2.5,1.1,3.8s0.6,2.6,0.9,3.9c0.3,1.3,0.5,2.6,0.7,3.9s0.4,2.6,0.5,4c0.1,1.3,0.3,2.6,0.3,4c0.1,1.3,0.1,2.7,0.1,4
		s0,2.7-0.1,4s-0.1,2.7-0.3,4c-0.1,1.3-0.3,2.6-0.5,4c-0.2,1.3-0.4,2.6-0.6,3.9c-0.2,1.3-0.5,2.6-0.8,3.9s-0.7,2.6-1,3.9
		c-0.4,1.3-0.8,2.5-1.2,3.8s-0.9,2.5-1.4,3.7s-1,2.5-1.6,3.7c-8.2,17.8-22.2,32.4-40.9,39c-12.3,4.4-24.7,4.7-37.5,3.7
		c11,62.2,29.5,160.5,20.2,222.4l-1.3-13.5c-10,5.3-23.9,45.5-31.2,57.4l-4.1,4.2c-17.6-38-46.8-71.4-70.5-105.7
		c-0.8-15.3-9.7-35-13.6-50.3c-6.1-24.1-10.7-48.6-16.3-72.9c-9-38-10.9-78-13.5-116.9c-15-226.1,42.6-443.7,153.7-639.9
		c23.1-40.7,47-80.9,73.5-119.5c19.9-28.9,44.5-57.7,60.8-88.8c9.6-18.4,15-39.3,8-59.5c-6.2-18.1-18.7-27.8-34.9-36.1
		c-22.8-16.2-75.7-6.7-103.5-10.2c-29.8-3.7-60.7-10.5-88.7-21.4c-61.9-24.2-91.9-60.8-141.4-99.4c-11.9-9.2-24.3-17.6-37.3-25.2
		c-12.9-7.7-26.2-14.6-40-20.7C2321.6,533,2182.5,528.7,2070,597c-46.4,28.2-91.8,63.8-146.7,72.9c-20.4,3.4-42,3.7-62.4-0.2
		c-33.4-6.4-69.3-28.6-103.5-15.4c-18.3,8.5-36.3,21.3-43.1,41.2c-8.1,23.7,3.1,52.3,14,73.5c12.3,23.8,27,46.4,40,69.8
		c16.1,29,30.8,59.5,44.5,89.8c113.7,251.2,153.3,519.1,88.9,788.9c-7.7,5.6-20.5,55.7-23.8,67.5c11.1-0.5,22.5-1.5,33.6-0.7
		c-27,2.7-54.4,2.5-81.5,4.6c-27,2.2-55.6,7.2-82.5,6.8c19.8-52.8,32.6-106.5,45.8-161.2c-16.4,6.5-31.2,12.1-48.5,4.5
		c-14.7-6.5-25.4-20-30.7-35c-7.3-20.9-4.8-46.3,5.6-65.8c0.6-1.1,1.2-2.2,1.8-3.2c0.6-1.1,1.3-2.1,1.9-3.1c0.7-1,1.4-2,2.1-3
		s1.5-2,2.2-2.9c0.8-1,1.6-1.9,2.4-2.8s1.7-1.8,2.5-2.7c0.9-0.9,1.7-1.7,2.7-2.6c0.9-0.8,1.8-1.6,2.8-2.4c0.9-0.8,1.9-1.5,2.9-2.3
		c1-0.7,2-1.4,3-2.1s2.1-1.3,3.1-2c1.1-0.6,2.1-1.2,3.2-1.8c1.1-0.6,2.2-1.1,3.3-1.7c1.1-0.5,2.2-1,3.4-1.5c1.1-0.5,2.3-0.9,3.4-1.3
		c1.2-0.4,2.3-0.8,3.5-1.2C1780.9,1496.7,1796.8,1498.5,1813.3,1504.3z"/>
	<path style="fill:#C17D4F;" d="M1757.5,654.3c34.2-13.2,70.1,9.1,103.5,15.4c20.3,3.9,42,3.5,62.4,0.2
		c54.8-9.1,100.3-44.7,146.7-72.9c112.5-68.3,251.6-64.1,369.7-11.7c13.7,6.1,27.1,13,40,20.7s25.3,16.1,37.3,25.2
		c49.5,38.6,79.5,75.2,141.4,99.4c28,10.9,58.8,17.7,88.7,21.4c27.8,3.4,80.8-6.1,103.5,10.2c16.2,8.4,28.7,18.1,34.9,36.1
		c7,20.2,1.6,41.2-8,59.5c-16.2,31-40.9,59.9-60.8,88.8c-26.6,38.5-50.5,78.8-73.5,119.5c-111,196.2-168.7,413.8-153.7,639.9
		c2.6,38.8,4.5,78.9,13.5,116.9c-10.5-3.7-20.9-7.4-31.4-11.2c-15.3-3.3-30.6-9.2-45.6-13.7c-21.9-6.4-43.9-12.3-66-17.6
		c-92.3-22.8-183.9-38.7-278.5-48.9c-59.5-6.3-119.2-10.4-179-12.4c-26-0.8-60.8,3.2-85.1-1.1l-15.5-0.5
		c64.4-269.8,24.7-537.7-88.9-788.9c-13.7-30.2-28.4-60.8-44.5-89.8c-13-23.4-27.7-46-40-69.8c-10.9-21.1-22.1-49.8-14-73.5
		C1721.2,675.7,1739.2,662.8,1757.5,654.3z"/>
	<path style="fill:#FFFFFF;" d="M2850.5,762.2c16.2,8.4,28.7,18.1,34.9,36.1c7,20.2,1.6,41.2-8,59.5c-16.2,31-40.9,59.9-60.8,88.8
		c-26.6,38.5-50.5,78.8-73.5,119.5c-111,196.2-168.7,413.8-153.7,639.9c2.6,38.8,4.5,78.9,13.5,116.9c-10.5-3.7-20.9-7.4-31.4-11.2
		c-36.4-37.3-64.7-164.7-72.3-219.6c-32.7-235.8,68.1-537.9,210.2-725.1C2744.9,820.4,2789.6,770.6,2850.5,762.2z"/>
	<path style="fill:#FFFFFF;" d="M1757.5,654.3c33.5,5.5,63.5,50.8,82.3,77c139.4,194.4,239.2,490.7,199.4,731.1
		c-12.9,77.6-33.4,151.6-76,218.7c-7.7,12.1-16.4,27.4-28.1,35.9c-6,0.8-11.6,1-17.6,1l-15.5-0.5c64.4-269.8,24.7-537.7-88.9-788.9
		c-13.7-30.2-28.4-60.8-44.5-89.8c-13-23.4-27.7-46-40-69.8c-10.9-21.1-22.1-49.8-14-73.5C1721.2,675.7,1739.2,662.8,1757.5,654.3z"
		/>
	<path style="fill:#BA4529;" d="M1901.9,1717.5l15.5,0.5c24.3,4.3,59.1,0.3,85.1,1.1c59.8,2,119.5,6.1,179,12.4
		c94.5,10.2,186.2,26.1,278.5,48.9c22.2,5.3,44.2,11.2,66,17.6c15,4.5,30.4,10.3,45.6,13.7c10.4,3.8,20.9,7.5,31.4,11.2
		c5.6,24.3,10.2,48.8,16.3,72.9c3.9,15.3,12.8,35,13.6,50.3c23.7,34.3,52.9,67.6,70.5,105.7l4.1-4.2c2,5.1,3.3,9.5,3.3,15.1
		c0,20.3-4.8,40.6-7.3,60.7c-3.6,29-7.1,98.6-17.6,122.5c-9.3,21.1-37.5,51.3-54.5,67c-8.6,8-24.7,17.5-30.1,27.5
		c-12.6,4.9-45.4,34.6-58.4,44.3c-19.5,14.8-39.7,28.6-60.5,41.5c-54.2,34.1-109.6,66.1-166.1,96c-21,11.2-71.3,31.9-86.4,44.2
		c-5,4.8-9,6.5-15.5,8.8c-41.9,15.1-83.6,1.9-125.8-4.6c-15.2-7.5-77.3-15-97.4-18.7c-38.5-7.1-76.7-15.9-115.4-21.8
		c-34.1-5.4-68-13.8-101.7-21.2c-11.7-4.6-26.9-5.7-39.4-7.9l-75.5-13.6l-303.4-55.2c-35.9-6.5-71.7-13.2-107.4-20.1
		c-20-3.9-41.6-10.1-61.9-11.1c-10.4-4.3-127.3-24.3-141.9-24.7l-29.2-5.5c-1.6-61.3-0.9-123-1.3-184.4c-1.3-2.4-0.6-1.5-2.6-3.6
		c-5.5-5.9-12.8-12.6-15.1-20.6c-4.4-15.3,3.1-34.3,10.9-47.3c70.8-118.9,436.2-246.3,570.2-282.8c37.8-10.3,76.5-18.8,114.9-26.2
		c17.3-3.3,35.6-5,52.6-9.4l2.9-0.8c26.9,0.4,55.6-4.6,82.5-6.8c27.1-2.2,54.5-1.9,81.5-4.6c-11.1-0.8-22.5,0.2-33.6,0.7
		C1881.4,1773.2,1894.2,1723.1,1901.9,1717.5z"/>
	<path style="fill:#6F1A0B;" d="M1901.9,1717.5l15.5,0.5c24.3,4.3,59.1,0.3,85.1,1.1c59.8,2,119.5,6.1,179,12.4
		c94.5,10.2,186.2,26.1,278.5,48.9c22.2,5.3,44.2,11.2,66,17.6c15,4.5,30.4,10.3,45.6,13.7c10.4,3.8,20.9,7.5,31.4,11.2
		c5.6,24.3,10.2,48.8,16.3,72.9c3.9,15.3,12.8,35,13.6,50.3c-110.3-85.1-386.3-134-526.1-150.2c-64.8-7.5-129.8-11.3-195.1-11.6
		c-11.1-0.8-22.5,0.2-33.6,0.7C1881.4,1773.2,1894.2,1723.1,1901.9,1717.5z"/>
	<path style="fill:#6A2A07;" d="M2703.4,2051.8l4.1-4.2c2,5.1,3.3,9.5,3.3,15.1c0,20.3-4.8,40.6-7.3,60.7
		c-3.6,29-7.1,98.6-17.6,122.5c-9.3,21.1-37.5,51.3-54.5,67c-8.6,8-24.7,17.5-30.1,27.5c-12.6,4.9-45.4,34.6-58.4,44.3
		c-19.5,14.8-39.7,28.6-60.5,41.5c-54.2,34.1-109.6,66.1-166.1,96c-21,11.2-71.3,31.9-86.4,44.2c-5,4.8-9,6.5-15.5,8.8l-2.6-2.2
		c-4.5-10.2-2.8-169.9-1.3-192.3c40.8-8.6,81.1-26.5,118.8-44.1C2468.6,2271.6,2610.1,2175.7,2703.4,2051.8z"/>
	<path style="fill:#963914;" d="M1013.9,2186.5c65.1,13.5,131,23.6,196.4,35.6l425.4,79.9l313.3,57.8
		c54.5,9.8,110.2,24.1,165.5,27.8c23.2,1.6,46.2-0.1,69.3-3c8.5-1.1,18.2-3.8,26.7-3.9c-1.5,22.4-3.2,182.1,1.3,192.3l2.6,2.2
		c-41.9,15.1-83.6,1.9-125.8-4.6c-15.2-7.5-77.3-15-97.4-18.7c-38.5-7.1-76.7-15.9-115.4-21.8c-34.1-5.4-68-13.8-101.7-21.2
		c-11.7-4.6-26.9-5.7-39.4-7.9l-75.5-13.6l-303.4-55.2c-35.9-6.5-71.7-13.2-107.4-20.1c-20-3.9-41.6-10.1-61.9-11.1
		c-10.4-4.3-127.3-24.3-141.9-24.7l-29.2-5.5C1013.6,2309.6,1014.3,2247.8,1013.9,2186.5z"/>
</g>
</svg>
