<?xml version="1.0" encoding="utf-8"?>
<!-- Generator: Adobe Illustrator 27.5.0, SVG Export Plug-In . SVG Version: 6.00 Build 0)  -->
<svg version="1.1" id="Layer_1" xmlns="http://www.w3.org/2000/svg" xmlns:xlink="http://www.w3.org/1999/xlink" x="0px" y="0px"
	 viewBox="0 0 4000 4000" style="enable-background:new 0 0 4000 4000;" xml:space="preserve">
<rect style="fill:#FFFFFF;" width="4000" height="4000"/>
<g>
	<path style="fill:#9D4211;" d="M2348.008,1780.298c20.545-10.522,41.834-21.424,63.968-28.146
		c-1.573,151.069-13.098,302.26-12.587,453.309c-17.208,8.112-34.091,16.062-50.149,26.354c6.571-27.48,0.706-94.587,0.476-126.296
		L2348.008,1780.298z"/>
	<path style="fill:#BE5119;" d="M3342.432,1184.755c16.225-6.69,151.711-65.53,155.574-70.349c1.407-1.756,1.99-4.034,2.984-6.056
		l-3.677,222.575c-8.378,4.022-19.573,8.021-27.131,13.189c-28.015,9.412-89.205,37.962-116.174,52.439
		c-4.938,2.334-8.501,4.997-14.041,4.649C3336.499,1380.202,3338.877,1207.201,3342.432,1184.755z"/>
	<path style="fill:#6A2010;" d="M2348.008,1780.298l1.708,325.222c0.23,31.709,6.095,98.815-0.476,126.296
		c-22.34-5.707-47.565-19.93-70.162-27.94c-4.593-83.312-12.943-166.663-19.922-249.817c-3.19-38.053-7.264-76.369-8.449-114.529
		c0.08-2.766-0.361-7.653,0.591-10.149C2254.685,1820.496,2335.801,1785.994,2348.008,1780.298z"/>
	
		<linearGradient id="SVGID_1_" gradientUnits="userSpaceOnUse" x1="6231.8066" y1="-967.5015" x2="7103.6577" y2="1130.7117" gradientTransform="matrix(0.5059 0 0 -0.5059 0.7476 2024.6882)">
		<stop  offset="0" style="stop-color:#9A421C"/>
		<stop  offset="1" style="stop-color:#BC582B"/>
	</linearGradient>
	<path style="fill:url(#SVGID_1_);" d="M3354.008,1396.553c26.969-14.477,88.159-43.027,116.174-52.439
		c-0.448,16.122-0.305,32.493-1.51,48.564l-48.061,763.999c-9.44,135.715-17.486,271.509-24.139,407.385
		c-14.818,8.869-33.163,22.792-49.519,27.746l-6.333,0.127l3.373-1.613l-5.445-1.304c3.178-10.094,0.499-215.639,0.789-246.004
		c2.327-297.989,6.6-595.951,12.817-893.885l0.745-1.573C3353.996,1430.58,3353.897,1413.555,3354.008,1396.553z"/>
	<path style="fill:#812C15;" d="M3354.008,1396.553c26.969-14.477,88.159-43.027,116.174-52.439
		c-0.448,16.122-0.305,32.493-1.51,48.564c-38.696,17.675-78.445,34.471-115.774,54.877
		C3353.996,1430.58,3353.897,1413.555,3354.008,1396.553z"/>
	<path style="fill:#812C15;" d="M3206.922,1397.715c35.993,8.378,118.71,49.729,145.231,51.413
		c-6.217,297.934-10.489,595.896-12.817,893.885c-0.289,30.365,2.39,235.91-0.789,246.004l5.445,1.304l-3.373,1.613l6.333-0.127
		c-2.501,1.716-5.41,3.947-8.251,5.005c-11.822,4.399-69.366-22.189-82.797-27.655c-0.618-56.403-4.335-112.999-6.809-169.362
		l-9.745-241.3L3206.922,1397.715z"/>
	<path style="fill:#812C15;" d="M564.038,1705.658c36.991,5.588,108.16,36.318,142.766,52.047l3.194-9.5
		c0.555,4.894,0.262,5.54,3.591,9.056c18.194,3.289,42.674-8.057,59.664-14.2c17.291,1.288,38.921,9.309,55.095,15.995l-0.46,21.813
		c0.178,47.787-2.75,95.788-4.415,143.555l-13.53,348.256l-15.131,496.816c-2.314,78.786-2.715,157.75-6.591,236.465
		c-25.102,10.553-50.228,20.925-74.633,33.028c-26.842-10.237-53.541-24.789-79.65-37.023
		c-4.023-56.105-5.754-112.623-8.691-168.815l-17.584-332.602c-11.308-225.94-24.004-451.803-38.089-677.588
		c-1.633-23.481-2.001-47.196-2.937-70.729L564.038,1705.658z"/>
	<path style="fill:#8A380E;" d="M564.038,1705.658c36.991,5.588,108.16,36.318,142.766,52.047l3.194-9.5
		c0.555,4.894,0.262,5.54,3.591,9.056c18.194,3.289,42.674-8.057,59.664-14.2c17.291,1.288,38.921,9.309,55.095,15.995l-0.46,21.813
		c-0.876,4.942-0.658,13.181-5.259,16.13c-15.397,9.868-71.648,24.266-92.379,30.322c-9.254-3.25-16.875-6.987-25.245-12.044
		c0.682,31.407,2.695,63.532,1.451,94.9c-6.638-8.299-4.359-79.702-3.579-94.131c-42.536-20.679-87.299-41.244-131.408-58.253
		c-1.13,19.201,6.071,48.595-1.894,65.169c-1.633-23.481-2.001-47.196-2.937-70.729L564.038,1705.658z"/>
	<path style="fill:#812C15;" d="M564.038,1705.658c36.991,5.588,108.16,36.318,142.766,52.047c4.736,7.859,0.797,46.15,0.42,57.382
		c-38.886-19.927-100.29-48.655-140.586-62.855L564.038,1705.658z"/>
	
		<linearGradient id="SVGID_00000062889049708280330710000000979487285071458717_" gradientUnits="userSpaceOnUse" x1="879.3669" y1="-1611.4546" x2="2091.1318" y2="116.8705" gradientTransform="matrix(0.5059 0 0 -0.5059 0.7476 2024.6882)">
		<stop  offset="0" style="stop-color:#8E3213"/>
		<stop  offset="1" style="stop-color:#C36731"/>
	</linearGradient>
	<path style="fill:url(#SVGID_00000062889049708280330710000000979487285071458717_);" d="M730.25,1827.321
		c20.731-6.056,76.983-20.454,92.379-30.322c4.601-2.949,4.383-11.188,5.259-16.13c0.178,47.787-2.75,95.788-4.415,143.555
		l-13.53,348.256l-15.131,496.816c-2.314,78.786-2.715,157.75-6.591,236.465c-25.102,10.553-50.228,20.925-74.633,33.028
		c2.612-40.435,0.63-82.202,0.507-122.792l-0.678-223.518l-6.963-782.503c1.244-31.368-0.769-63.493-1.451-94.9
		C713.375,1820.334,720.996,1824.071,730.25,1827.321z"/>
	<path style="fill:#812C15;" d="M1747.72,2120.537c19.752-9.729,114.026-59.014,129.894-58.241l1.7,4.633
		c-0.531,17.065-0.947,34.133-1.248,51.203l-28.899,842.979c-5.429,155.781-13.094,311.617-16.609,467.446
		c-25.308,13.209-64.998,29.128-85.186,47.882c-13.296-0.368-69.346-30.523-86.795-38.034
		c-3.242-158.551-14.073-317.423-21.821-475.831l-39.781-827.583c-0.503-16.736-2.001-33.567-3.008-50.292l2.37-4.811
		c15.111-0.773,117.236,36.405,145.168,41.232L1747.72,2120.537z"/>
	<path style="fill:#8A380E;" d="M1747.72,2120.537c19.752-9.729,114.026-59.014,129.894-58.241l1.7,4.633
		c-0.531,17.065-0.947,34.133-1.248,51.203c-17.43,13.217-107.209,55.749-130.492,63.726l-0.923,201.808
		c-0.289,26.866,2.243,56.846-1.26,83.205c-9.999-8.687,5.877-251.176-2.124-283.757c-9.591-9.349-100.052-29.759-122.535-38.676
		l-0.412-2.08c-6.915-2.957-14.192-5.049-21.345-7.367c-0.503-16.736-2.001-33.567-3.008-50.292l2.37-4.811
		c15.111-0.773,117.236,36.405,145.168,41.232L1747.72,2120.537z"/>
	<path style="fill:#6A2010;" d="M1595.965,2084.699l2.37-4.811c15.111-0.773,117.236,36.405,145.168,41.232
		c3.733,3.214,3.737,3.804,4.213,8.933c1.494,16.154,0.194,33.365-0.059,49.622c-42.175-12.21-84.731-27.052-127.338-37.316
		c-6.915-2.957-14.192-5.049-21.345-7.367C1598.47,2118.254,1596.972,2101.423,1595.965,2084.699z"/>
	
		<linearGradient id="SVGID_00000142148763284766870280000005587226264345107120_" gradientUnits="userSpaceOnUse" x1="3186.9587" y1="-2772.7017" x2="3903.1426" y2="-255.6685" gradientTransform="matrix(0.5059 0 0 -0.5059 0.7476 2024.6882)">
		<stop  offset="0" style="stop-color:#963D1A"/>
		<stop  offset="1" style="stop-color:#BE5B2B"/>
	</linearGradient>
	<path style="fill:url(#SVGID_00000142148763284766870280000005587226264345107120_);" d="M1747.573,2181.858
		c23.283-7.978,113.063-50.509,130.492-63.726l-28.899,842.979c-5.429,155.781-13.094,311.617-16.609,467.446
		c-25.308,13.209-64.998,29.128-85.186,47.882c3.392-35.327,0.769-73.38,0.321-108.925c-0.901-58.614-1.206-117.231-0.916-175.85
		l-1.387-724.792c3.503-26.358,0.971-56.339,1.26-83.205L1747.573,2181.858z"/>
	<path style="fill:#BE5119;" d="M3342.717,1128.681c3.757,17.172,0.832,38.549-0.285,56.074
		c-3.555,22.447-5.933,195.447-2.465,216.448c5.54,0.349,9.103-2.315,14.041-4.649c-0.111,17.002-0.012,34.027-1.11,51.001
		l-0.745,1.573c-26.521-1.684-109.239-43.035-145.231-51.413l-1.625-12.23c-73.143,32.755-145.33,67.836-217.954,101.732
		l-362.507,167.551l-143.658,65.335c-18.428,8.251-54.271,20.378-69.203,32.049c-22.134,6.721-43.423,17.624-63.968,28.146
		c-12.206,5.695-93.323,40.198-96.711,49.083c-0.951,2.497-0.511,7.383-0.591,10.149l-1.965-7.946
		c-4.391-1.894-6.159-1.581-10.435,0.321c-105.236,46.776-208.767,98.487-314.621,143.816c-0.587-41.141,2.041-84.374,5.83-125.372
		c0.285-8.346-0.071-16.249-0.967-24.551c-2.984-24.191-0.963-50.759-1.934-75.302l751.868-331.219
		c213.554-94.234,426.388-191.675,642.074-280.887L3342.717,1128.681z"/>
	<path style="fill:#6A2010;" d="M3342.717,1128.681c3.757,17.172,0.832,38.549-0.285,56.074
		c-3.555,22.447-5.933,195.447-2.465,216.448c5.54,0.349,9.103-2.315,14.041-4.649c-0.111,17.002-0.012,34.027-1.11,51.001
		l-0.745,1.573c-26.521-1.684-109.239-43.035-145.231-51.413l-1.625-12.23c13.185-12.781,98.031-47.977,119.788-57.98
		c0.072-34.463,2.707-71.53-1.454-105.743c-4.593-26.715-2.822-56.307-3.075-83.371L3342.717,1128.681z"/>
	<path style="fill:#812C15;" d="M1926.613,1750.496l751.868-331.219c213.554-94.234,426.388-191.675,642.074-280.887
		c0.254,27.064-1.518,56.656,3.075,83.371c-37.911,12.194-74.811,31.245-111.153,47.609l-200.643,90.719l-742.674,337.183
		c-62.495,28.244-124.799,56.906-186.911,85.987c-50.41,23.378-100.761,47.339-152.737,67.091
		c0.285-8.346-0.071-16.249-0.967-24.551C1925.563,1801.608,1927.584,1775.04,1926.613,1750.496z"/>
	<path style="fill:#DB8E56;" d="M347.372,1218.349c406.61-138.346,811.827-280.661,1215.649-426.947
		c170.323-61.75,341.038-122.4,512.145-181.949c45.137-15.77,90.126-31.95,134.967-48.54
		c35.081-12.975,70.503-27.191,106.405-37.637c108.113,23.949,215.009,53.656,323.185,77.102v5.029
		c-44.196,26.085-92.542,46.891-138.76,69.275c-9.071,4.391-17.406,9.963-26.39,14.334
		c-71.49,34.804-143.911,67.975-214.597,104.395c-426.116,216.435-853.921,429.478-1283.416,639.13l-2.489-0.487
		c-27.318-5.643-54.346-15.658-80.91-24.191c-55.768-17.917-111.034-37.312-166.711-55.507
		c-92.831-30.333-185.1-60.532-277.332-92.657c-29.581-10.304-60.714-17.671-89.613-29.707
		C353.65,1227.552,350.805,1223.49,347.372,1218.349z"/>
	<path style="fill:#F49C4E;" d="M3685.631,849.486l36.274,9.198c-0.305,8.077,0.8,19.736-1.851,27.195l-5.378,85.658
		l-153.506,65.121c-18.226,7.732-43.491,14.449-59.129,25.871c-1.209,5.814-1.443,11.065-1.43,16.994
		c0.188,9.609,0.314,19.218,0.38,28.827c-0.995,2.021-1.577,4.3-2.984,6.056c-3.864,4.819-139.35,63.659-155.574,70.349
		c1.117-17.525,4.042-38.902,0.285-56.074l-22.162,9.71c-215.687,89.213-428.52,186.653-642.074,280.887l-751.868,331.219
		c0.971,24.543-1.05,51.112,1.934,75.302c0.896,8.303,1.252,16.205,0.967,24.551c-3.789,40.998-6.416,84.231-5.83,125.372
		c-4.26,20.358-2.869,44.684-3.519,65.541c-9.289,4.102-37.907,12.936-40.253,22.071c-0.301,1.177-0.4,2.397-0.598,3.594l-1.7-4.633
		c-15.868-0.773-110.142,48.512-129.894,58.241l-4.217,0.583c-27.932-4.827-130.057-42.005-145.168-41.232l-2.37,4.811
		c-0.377-2.287-1.213-4.653-1.843-6.892c-7.098-4.751-16.177-6.115-24.373-8.18c-1.447-18.551-1.149-37.59-3.959-55.971
		c-109.001-40.32-220.058-75.719-330.121-113.007l-407.322-141.593c-16.173-6.686-37.804-14.707-55.095-15.995
		c-16.99,6.143-41.47,17.489-59.664,14.2c-3.329-3.515-3.036-4.161-3.591-9.056l-3.194,9.5
		c-34.606-15.729-105.775-46.459-142.766-52.047c-9.075-2.049-18.246-6.254-27.016-9.456c-6.119-56.01-7.118-113.356-10.213-169.64
		c-1.641-29.184-2.982-58.381-4.023-87.592c-78.715-27.651-157.861-55.293-237.475-80.26c-3.234-38.648-4.135-77.779-6.366-116.534
		c13.713-9.202,51.173-18.139,68.426-23.826c3.434,5.14,6.279,9.202,12.133,11.643c28.898,12.036,60.032,19.403,89.613,29.707
		c92.233,32.125,184.501,62.323,277.332,92.657c55.677,18.195,110.943,37.59,166.711,55.507
		c26.564,8.532,53.593,18.547,80.91,24.191l2.489,0.487c96.263,32.735,192.834,64.532,289.713,95.391
		c50.486,15.943,101.875,29.842,152.127,46.32c106.714,30.991,211.216,68.89,317.875,99.985
		c45.679-20.307,92.451-38.529,138.446-58.174l432.998-183.423l887.604-375.997l354.589-148.984
		C3574.672,897.273,3672.834,860.939,3685.631,849.486z"/>
	<path style="fill:#812C15;" d="M278.945,1242.176l541.437,180.328c118.227,40.909,236.933,80.378,356.118,118.405
		c0.38,36.775,0.53,73.551,0.448,110.328c-54.726-20.469-112.318-36.361-167.987-54.449
		c-82.638-26.858-165.042-55.519-248.299-80.347l-60.29-20.854c0.388,10.364,1.304,20.993,0.725,31.344
		c0.868,18.757-0.222,40.09,3.25,58.404c0.297,4.617,0.923,9.262,0.273,13.855c1.456,49.684,3.248,99.356,5.378,149.016l-3.194,9.5
		c-34.606-15.729-105.775-46.459-142.766-52.047c-9.075-2.049-18.246-6.254-27.016-9.456c-6.119-56.01-7.118-113.356-10.213-169.64
		c-1.641-29.184-2.982-58.381-4.023-87.592c-78.715-27.651-157.861-55.293-237.475-80.26
		C282.078,1320.062,281.176,1280.931,278.945,1242.176z"/>
	<path style="fill:#8A380E;" d="M522.787,1438.97c59.383,16.118,116.733,39.896,175.992,56.842
		c0.202,10.411-0.159,20.957,2.318,31.118c0.868,18.757-0.222,40.09,3.25,58.404c0.297,4.617,0.923,9.262,0.273,13.855
		c-1.815-3.242-1.894-9.718-2.382-13.455c-13.368-9.321-154.097-55.253-175.43-59.173
		C525.168,1497.378,523.828,1468.181,522.787,1438.97z"/>
	<path style="fill:#9D4211;" d="M526.809,1526.562c21.333,3.92,162.062,49.852,175.43,59.173c0.487,3.737,0.567,10.213,2.382,13.455
		c1.456,49.684,3.248,99.356,5.378,149.016l-3.194,9.5c-34.606-15.729-105.775-46.459-142.766-52.047
		c-9.075-2.049-18.246-6.254-27.016-9.456C530.903,1640.192,529.904,1582.846,526.809,1526.562z"/>
	<path style="fill:#9D4211;" d="M1176.501,1540.909c132.676,46.451,268.562,85.781,402.625,128.233
		c37.506,11.778,74.933,23.809,112.278,36.092c17.719,5.838,36.789,10.871,53.89,18.242c0.143,33.908-3.333,72.849,1.795,106.286
		c21.535-7.478,42.742-18.595,63.584-27.944c38.555-17.313,77.202-34.421,115.94-51.322c0.971,24.543-1.05,51.112,1.934,75.302
		c0.896,8.303,1.252,16.205,0.967,24.551c-3.789,40.998-6.416,84.231-5.83,125.372c-4.26,20.358-2.869,44.684-3.519,65.541
		c-9.289,4.102-37.907,12.936-40.253,22.071c-0.301,1.177-0.4,2.397-0.598,3.594l-1.7-4.633
		c-15.868-0.773-110.142,48.512-129.894,58.241l-4.217,0.583c-27.932-4.827-130.057-42.005-145.168-41.232l-2.37,4.811
		c-0.377-2.287-1.213-4.653-1.843-6.892c-7.098-4.751-16.177-6.115-24.373-8.18c-1.447-18.551-1.149-37.59-3.959-55.971
		c-1.946-44.708,2.901-90.469-1.926-134.971l-0.713-23.885c-1.145-27.108-0.004-54.71,0.063-81.869
		c-33.08-6.38-67.448-20.953-99.834-31.039c-95.471-29.723-190.279-63.35-286.432-90.655
		C1177.031,1614.459,1176.881,1577.683,1176.501,1540.909z"/>
	<path style="fill:#812C15;" d="M1563.214,1772.931c60.088,19.95,121.33,41.636,182.603,57.401
		c5.497,21.068,1.863,51.912,1.625,74.054c-16.237-3.139-32.775-9.547-48.675-14.374c-28.999-8.761-58.053-17.339-87.16-25.732
		c-14.731-4.284-30.167-9.979-45.365-11.953l-3.091,2.473C1562.006,1827.693,1563.147,1800.09,1563.214,1772.931z"/>
	<path style="fill:#9D4211;" d="M1928.547,1825.799c0.896,8.303,1.252,16.205,0.967,24.551c-3.789,40.998-6.416,84.231-5.83,125.372
		c-4.26,20.358-2.869,44.684-3.519,65.541c-9.289,4.102-37.907,12.936-40.253,22.071c-0.301,1.177-0.4,2.397-0.598,3.594l-1.7-4.633
		c-15.868-0.773-110.142,48.512-129.894,58.241l-4.217,0.583c-27.932-4.827-130.057-42.005-145.168-41.232l-2.37,4.811
		c-0.377-2.287-1.213-4.653-1.843-6.892c-7.098-4.751-16.177-6.115-24.373-8.18c-1.447-18.551-1.149-37.59-3.959-55.971
		c-1.946-44.708,2.901-90.469-1.926-134.971l-0.713-23.885l3.091-2.473c15.198,1.974,30.635,7.668,45.365,11.953
		c29.107,8.394,58.161,16.971,87.16,25.732c15.9,4.827,32.438,11.235,48.675,14.374
		C1807.213,1880.937,1867.738,1844.033,1928.547,1825.799z"/>
	<path style="fill:#C57341;" d="M1928.547,1825.799c0.896,8.303,1.252,16.205,0.967,24.551c-3.789,40.998-6.416,84.231-5.83,125.372
		c-4.26,20.358-2.869,44.684-3.519,65.541c-9.289,4.102-37.907,12.936-40.253,22.071c-0.301,1.177-0.4,2.397-0.598,3.594l-1.7-4.633
		c-15.868-0.773-110.142,48.512-129.894,58.241l-0.277-216.15C1807.213,1880.937,1867.738,1844.033,1928.547,1825.799z"/>
	<path style="fill:#BE5119;" d="M1745.294,1723.476c87.41-38.779,176.563-73.801,264.369-111.707l1145.509-490.285l414.387-177.308
		c31.205-13.371,121.061-57.27,148.247-62.371l2.247,4.074l-5.378,85.658l-153.506,65.121
		c-18.226,7.732-43.491,14.449-59.129,25.871c-1.209,5.814-1.443,11.065-1.43,16.994c0.188,9.609,0.314,19.218,0.38,28.827
		c-0.995,2.021-1.577,4.3-2.984,6.056c-3.864,4.819-139.35,63.659-155.574,70.349c1.117-17.525,4.042-38.902,0.285-56.074
		l-22.162,9.71c-215.687,89.213-428.52,186.653-642.074,280.887l-751.868,331.219c-38.738,16.901-77.385,34.009-115.94,51.322
		c-20.842,9.349-42.048,20.465-63.584,27.944C1741.961,1796.325,1745.437,1757.384,1745.294,1723.476z"/>
	<path style="fill:#9D4211;" d="M3342.717,1128.681c30.924-9.789,77.728-32.275,108.834-46.067
		c14.493-6.428,31.447-16.403,47.113-18.979l1.946,15.888c0.188,9.609,0.314,19.218,0.38,28.827c-0.995,2.021-1.577,4.3-2.984,6.056
		c-3.864,4.819-139.35,63.659-155.574,70.349C3343.549,1167.23,3346.474,1145.853,3342.717,1128.681z"/>
	<path style="fill:#812C15;" d="M700.372,1495.587l60.29,20.854c83.257,24.829,165.661,53.49,248.299,80.347
		c55.669,18.088,113.261,33.979,167.987,54.449c96.152,27.305,190.961,60.932,286.432,90.655
		c32.386,10.086,66.754,24.658,99.834,31.039c-0.067,27.159-1.209,54.762-0.063,81.869l0.713,23.885
		c4.827,44.501-0.02,90.263,1.926,134.971c-109.001-40.32-220.058-75.719-330.121-113.007l-407.322-141.593
		c-16.173-6.686-37.804-14.707-55.095-15.995c-16.99,6.143-41.47,17.489-59.664,14.2c-3.329-3.515-3.036-4.161-3.591-9.056
		c-2.129-49.66-3.922-99.332-5.378-149.016c0.65-4.593,0.024-9.238-0.273-13.855c-3.472-18.313-2.382-39.647-3.25-58.404
		C701.676,1516.579,700.761,1505.95,700.372,1495.587z"/>
	<path style="fill:#6A2010;" d="M700.372,1495.587l60.29,20.854c83.257,24.829,165.661,53.49,248.299,80.347
		c55.669,18.088,113.261,33.979,167.987,54.449c96.152,27.305,190.961,60.932,286.432,90.655
		c32.386,10.086,66.754,24.658,99.834,31.039c-0.067,27.159-1.209,54.762-0.063,81.869l0.713,23.885
		c-65.85-19.419-130.179-45.096-195.205-67.19c-130.43-45.129-261.23-89.153-392.401-132.074
		c-70.88-23.858-141.466-49.634-212.928-71.625c0.975,27.29-2.271,117.03,9.923,135.264c-16.99,6.143-41.47,17.489-59.664,14.2
		c-3.329-3.515-3.036-4.161-3.591-9.056c-2.129-49.66-3.922-99.332-5.378-149.016c0.65-4.593,0.024-9.238-0.273-13.855
		c-3.472-18.313-2.382-39.647-3.25-58.404C701.676,1516.579,700.761,1505.95,700.372,1495.587z"/>
	<path style="fill:#55150B;" d="M700.372,1495.587l60.29,20.854c0.151,29.839,0.826,59.667,2.025,89.482
		c-19.419-6.86-38.799-14.104-58.341-20.588c-3.472-18.313-2.382-39.647-3.25-58.404
		C701.676,1516.579,700.761,1505.95,700.372,1495.587z"/>
	
		<linearGradient id="SVGID_00000162311168515124153290000008873079156640449451_" gradientUnits="userSpaceOnUse" x1="5790.2368" y1="3387.1882" x2="3589.8494" y2="338.25" gradientTransform="matrix(0.5059 0 0 -0.5059 0.7476 2024.6882)">
		<stop  offset="0" style="stop-color:#DB7435"/>
		<stop  offset="1" style="stop-color:#D49866"/>
	</linearGradient>
	<path style="fill:url(#SVGID_00000162311168515124153290000008873079156640449451_);" d="M2639.722,600.378
		c80.635,19.649,161.404,38.732,242.307,57.251c34.637,7.986,87.818,16.435,119.241,28.265l415.422,100.29l180.178,42.453
		c29.473,6.923,59.573,12.9,88.761,20.85c-12.797,11.453-110.958,47.787-135.719,58.174l-354.589,148.984l-887.604,375.997
		l-432.998,183.423c-45.995,19.645-92.768,37.867-138.446,58.174c-106.658-31.094-211.161-68.993-317.875-99.985
		c-50.252-16.478-101.641-30.377-152.127-46.32c-96.879-30.859-193.45-62.656-289.713-95.391
		c429.495-209.652,857.3-422.696,1283.416-639.13c70.686-36.421,143.107-69.592,214.597-104.395
		c8.984-4.371,17.319-9.943,26.39-14.334c46.218-22.384,94.563-43.19,138.76-69.275V600.378z"/>
	<path style="fill:#C57341;" d="M2639.722,600.378c80.635,19.649,161.404,38.732,242.307,57.251
		c34.637,7.986,87.818,16.435,119.241,28.265c8.683,7.3,21.856,8.735,32.513,12.226c-25.748,25.308-107.756,63.049-142.707,81.742
		l-210.016,113.332l-868.192,470.957L1551.773,1503.2c-43.689,22.986-92.058,44.236-133.373,71.054
		c-50.252-16.478-101.641-30.377-152.127-46.32c-96.879-30.859-193.45-62.656-289.713-95.391
		c429.495-209.652,857.3-422.696,1283.416-639.13c70.686-36.421,143.107-69.592,214.597-104.395
		c8.984-4.371,17.319-9.943,26.39-14.334c46.218-22.384,94.563-43.19,138.76-69.275V600.378z"/>
</g>
</svg>
