<?xml version="1.0" encoding="UTF-8"?>
<svg version="1.1" xmlns="http://www.w3.org/2000/svg" width="400" height="400">
<path d="M0 0 C1.43739513 -0.02712066 2.87493863 -0.04645067 4.3125 -0.0625 C5.51326172 -0.07990234 5.51326172 -0.07990234 6.73828125 -0.09765625 C9 0 9 0 12 1 C12.33 4.63 12.66 8.26 13 12 C18.92895929 14.8042375 24.80363954 17.34563627 31 19.5 C39.29714472 22.39308336 47.18962616 25.98926749 55 30 C54.67 30.66 54.34 31.32 54 32 C58.29 33.98 62.58 35.96 67 38 C66.67 38.99 66.34 39.98 66 41 C64.41145833 40.36458333 62.82291667 39.72916667 61.234375 39.09375 C60.20828125 38.68334473 59.1821875 38.27293945 58.125 37.85009766 C55.85928534 36.94374623 53.59366155 36.03716762 51.328125 35.13037109 C45.95518462 32.98013609 40.58147169 30.83199321 35.203125 28.6953125 C33.87909668 28.1684082 33.87909668 28.1684082 32.52832031 27.63085938 C30.8980376 26.98227259 29.26721726 26.33503475 27.63574219 25.68945312 C22.36189249 23.58902573 17.17610499 21.33130126 12 19 C12 22.96 12 26.92 12 31 C12.9075 31.226875 13.815 31.45375 14.75 31.6875 C20.35705303 33.28951515 25.64543935 35.71547474 31 38 C33.10339863 38.87684466 35.20754715 39.75189299 37.3125 40.625 C41.55287236 42.39136468 45.77784389 44.19050452 50 46 C52.92889352 47.22644736 55.86027924 48.44671968 58.79296875 49.6640625 C60.96502411 50.5688651 63.13422847 51.48053703 65.30078125 52.3984375 C66.35652344 52.84445313 67.41226562 53.29046875 68.5 53.75 C69.4590625 54.15734375 70.418125 54.5646875 71.40625 54.984375 C73.60521574 55.8454158 75.69697583 56.50028721 78 57 C78 57.99 78 58.98 78 60 C79.65 60.33 81.3 60.66 83 61 C83 52.75 83 44.5 83 36 C87.95 35.505 87.95 35.505 93 35 C93.30584494 64.46227832 92.86972975 93.89688171 92.18856049 123.35025406 C92.12605652 126.07887731 92.06570626 128.80754033 92.00592041 131.53622437 C91.57860841 150.8722044 90.95679309 170.17309615 89.86319542 189.48338127 C88.85509103 207.37900672 88.3972466 225.27805038 87.99383545 243.19604492 C87.82469278 250.67643881 87.64634877 258.15661575 87.46484375 265.63671875 C87.43664614 266.81051401 87.43664614 266.81051401 87.40787888 268.00802231 C87.13253709 279.3504186 86.73956467 290.67717736 86 302 C85.34 302 84.68 302 84 302 C84 302.99 84 303.98 84 305 C81.03 305 78.06 305 75 305 C74.83459765 291.25567761 75.28181342 277.54466849 75.79956055 263.81103516 C75.93904027 260.08384084 76.07032661 256.35641259 76.20117188 252.62890625 C76.28857239 250.25519024 76.37644523 247.88149156 76.46484375 245.5078125 C76.50343002 244.3954422 76.5420163 243.2830719 76.58177185 242.13699341 C76.64172081 240.59795853 76.64172081 240.59795853 76.70288086 239.02783203 C76.73619003 238.12646515 76.76949921 237.22509827 76.80381775 236.29641724 C77 234 77 234 78 231 C77.29270752 231.30873047 76.58541504 231.61746094 75.85668945 231.93554688 C66.17144609 235.54444022 54.90712984 235.52975273 44.65686035 236.31918335 C40.68834649 236.62526828 36.72110635 236.94692236 32.75390625 237.26953125 C31.98670258 237.33175369 31.2194989 237.39397614 30.42904663 237.45808411 C22.2654344 238.12842285 14.12836262 238.98989646 6 240 C6.14120714 241.93784265 6.28812873 243.87526955 6.4375 245.8125 C6.51871094 246.89144531 6.59992188 247.97039062 6.68359375 249.08203125 C6.90212461 252.05989905 6.90212461 252.05989905 8 255 C7 256.5 7 256.5 5 258 C2.36 258 -0.28 258 -3 258 C-3 252.06 -3 246.12 -3 240 C-5.000625 240.474375 -7.00125 240.94875 -9.0625 241.4375 C-15.71409098 242.88025853 -22.12695808 243.49040025 -28.91796875 243.7890625 C-32.03736428 243.87317011 -32.03736428 243.87317011 -35 245 C-37.97947004 245.32806977 -40.95195438 245.61543546 -43.9375 245.875 C-52.3613186 246.64513579 -60.7764292 247.47597435 -69.1875 248.375 C-70.34918701 248.49915283 -71.51087402 248.62330566 -72.70776367 248.7512207 C-79.31130845 249.4663051 -85.90929823 250.21912745 -92.50390625 251.01171875 C-93.22291107 251.09807587 -93.94191589 251.18443298 -94.68270874 251.27340698 C-96.14190719 251.44874705 -97.60110519 251.62409089 -99.06030273 251.79943848 C-99.78290283 251.88624878 -100.50550293 251.97305908 -101.25 252.0625 C-101.97050537 252.14914917 -102.69101074 252.23579834 -103.43334961 252.32507324 C-113.65159114 253.54875623 -123.8689161 254.56100461 -134.13061523 255.35180664 C-140.46885859 255.84659319 -146.72153892 256.55079132 -153.0144043 257.46533203 C-157.64734268 258.11019263 -162.29666279 258.58397417 -166.94921875 259.0625 C-168.25989319 259.19881836 -168.25989319 259.19881836 -169.5970459 259.33789062 C-171.73124906 259.55970183 -173.86560871 259.78000645 -176 260 C-176.02317503 268.40586115 -176.04094143 276.81170894 -176.05181217 285.21759415 C-176.05702969 289.12082295 -176.06410684 293.02402988 -176.07543945 296.92724609 C-176.08630847 300.69438644 -176.09228537 304.46150576 -176.09487724 308.22866058 C-176.09672424 309.66555869 -176.10033095 311.10245564 -176.10573006 312.53934479 C-176.11299363 314.55258562 -176.11340851 316.56584763 -176.11352539 318.57910156 C-176.115746 319.72493713 -176.11796661 320.87077271 -176.12025452 322.05133057 C-176.01693135 324.58483919 -175.64634697 326.5758037 -175 329 C-175 330.32 -175 331.64 -175 333 C-175.99 333 -176.98 333 -178 333 C-178 333.66 -178 334.32 -178 335 C-181.61973402 336.31626692 -184.09567131 337 -188 337 C-188 336.34 -188 335.68 -188 335 C-190.83151973 334.58190799 -190.83151973 334.58190799 -194 335 C-196.40406384 337.37842577 -196.40406384 337.37842577 -198 340 C-197.75 337.625 -197.75 337.625 -197 335 C-194.9375 333.6875 -194.9375 333.6875 -193 333 C-193.24556641 332.03731201 -193.24556641 332.03731201 -193.49609375 331.05517578 C-194.15690924 327.04866171 -194.10377842 323.16988791 -194.0625 319.1171875 C-194.05261242 317.30778148 -194.04302215 315.49837382 -194.03369141 313.68896484 C-194.0273468 312.74027527 -194.0210022 311.79158569 -194.01446533 310.81414795 C-193.99989333 307.85332677 -194.00170888 304.89297181 -194.00927734 301.93212891 C-194.02998601 293.32544917 -194.04876047 284.72832668 -193.7925415 276.12472534 C-193.70768687 272.95005514 -193.67719123 269.77632214 -193.65820312 266.60064697 C-193.63632348 265.13402676 -193.58969938 263.66753653 -193.51660156 262.20257568 C-193.03398863 254.35610319 -193.03398863 254.35610319 -196.29275513 247.4833374 C-199.63588001 244.50275397 -203.37238009 242.23221604 -207.25170898 240.01947021 C-209.59327384 238.65404786 -211.74662209 237.08052544 -213.91796875 235.4609375 C-214.62937012 234.94708496 -215.34077148 234.43323242 -216.07373047 233.90380859 C-216.77127441 233.39930176 -217.46881836 232.89479492 -218.1875 232.375 C-218.94434082 231.8279541 -219.70118164 231.2809082 -220.48095703 230.71728516 C-236.80764727 218.91204658 -236.80764727 218.91204658 -242 215 C-242.33 217.31 -242.66 219.62 -243 222 C-243.33 222 -243.66 222 -244 222 C-244.06058594 221.28972656 -244.12117188 220.57945312 -244.18359375 219.84765625 C-244.30927734 218.46900391 -244.30927734 218.46900391 -244.4375 217.0625 C-244.51871094 216.14597656 -244.59992188 215.22945312 -244.68359375 214.28515625 C-244.76044976 212.03840268 -244.76044976 212.03840268 -246 211 C-246.14115161 208.32941149 -246.04247107 205.67567762 -246 203 C-242.25351813 204.68227948 -239.05099409 207.02896767 -235.75 209.4375 C-227.92075443 215.08811912 -219.97094479 220.55194506 -212 226 C-210.25382293 227.19519078 -208.5077328 228.39050858 -206.76171875 229.5859375 C-202.17568025 232.72572002 -197.58778533 235.86276444 -193 239 C-193 224.81 -193 210.62 -193 196 C-194.32 195.67 -195.64 195.34 -197 195 C-196.01 195 -195.02 195 -194 195 C-194.03029297 194.2363916 -194.06058594 193.4727832 -194.09179688 192.68603516 C-195.02679624 167.66760987 -195.08781696 142.65714545 -195.0625 117.625 C-195.06164398 116.77265022 -195.06078796 115.92030045 -195.05990601 115.04212189 C-195.04839364 104.36139372 -195.02814505 93.68069704 -195 83 C-195.92345215 82.70577148 -196.8469043 82.41154297 -197.79833984 82.10839844 C-201.38704267 80.8660078 -204.35995967 79.18650668 -207.625 77.25 C-211.93832178 74.72576513 -216.25451654 72.31639166 -220.75 70.125 C-226.08853797 67.49546303 -231.33756625 64.72203879 -236.5625 61.875 C-237.74247559 61.24489014 -237.74247559 61.24489014 -238.94628906 60.60205078 C-246.22069846 56.60096741 -246.22069846 56.60096741 -248 53 C-248.29296875 50.640625 -248.29296875 50.640625 -248.1875 48.25 C-248.16042969 47.45078125 -248.13335937 46.6515625 -248.10546875 45.828125 C-248.07066406 45.22484375 -248.03585938 44.6215625 -248 44 C-247.34 44 -246.68 44 -246 44 C-246 44.66 -246 45.32 -246 46 C-245.33427979 46.24983643 -244.66855957 46.49967285 -243.98266602 46.75708008 C-240.31243589 48.28651788 -236.81097308 50.06766205 -233.27734375 51.88671875 C-232.536017 52.26681595 -231.79469025 52.64691315 -231.03089905 53.03852844 C-229.46279958 53.84346731 -227.89530185 54.64957935 -226.32836914 55.45678711 C-223.97163128 56.66993074 -221.61194439 57.8771847 -219.25195312 59.08398438 C-210.68000274 63.48341335 -202.25203942 68.01887546 -194 73 C-194 69.7 -194 66.4 -194 63 C-194.86568604 62.72978027 -195.73137207 62.45956055 -196.62329102 62.18115234 C-199.91607885 61.02935511 -202.91175201 59.66567526 -206.02734375 58.1015625 C-207.14947266 57.53953125 -208.27160156 56.9775 -209.42773438 56.3984375 C-211.16506836 55.52058594 -211.16506836 55.52058594 -212.9375 54.625 C-214.09185547 54.0475 -215.24621094 53.47 -216.43554688 52.875 C-225.80450348 48.16633334 -225.80450348 48.16633334 -229.8828125 45.6328125 C-233.41205402 43.78416218 -235.97804909 43.41327633 -239.9375 43.25 C-241.08089844 43.19328125 -242.22429687 43.1365625 -243.40234375 43.078125 C-244.25957031 43.05234375 -245.11679688 43.0265625 -246 43 C-246 40.69 -246 38.38 -246 36 C-248.97 35.01 -251.94 34.02 -255 33 C-255 32.34 -255 31.68 -255 31 C-255.66 31 -256.32 31 -257 31 C-256.97232544 31.86328289 -256.94465088 32.72656578 -256.9161377 33.61600876 C-256.27064991 53.98894412 -255.79368594 74.35531012 -255.52767944 94.73723316 C-255.47955298 98.37268274 -255.42806158 102.00808499 -255.37695312 105.64349365 C-255.28056484 112.53015864 -255.18658875 119.41685387 -255.09375763 126.30356765 C-254.90961352 139.96262802 -254.72123045 153.6216297 -254.53104782 167.28060722 C-254.50004689 169.51224944 -254.46925566 171.74389446 -254.43850708 173.97554016 C-254.13330387 196.08240422 -253.7671078 218.1873245 -253.3046875 240.29156494 C-253.22258134 244.23184923 -253.15579394 248.17191713 -253.10107422 252.1126709 C-253.04176191 256.30653454 -252.91433235 260.49370493 -252.76220703 264.68518066 C-252.70651782 266.87506021 -252.65164377 269.06496066 -252.59765625 271.25488281 C-252.54902939 272.27341717 -252.50040253 273.29195152 -252.45030212 274.34135056 C-252.40193153 277.02552889 -252.40423075 279.38172059 -253 282 C-255.93920898 284.53094482 -255.93920898 284.53094482 -259 286 C-260.38868516 288.10039331 -260.38868516 288.10039331 -261 290 C-261.125 287.625 -261.125 287.625 -261 285 C-260.34 284.34 -259.68 283.68 -259 283 C-258.12705968 279.71243568 -257.87660922 276.62573253 -257.88696289 273.23510742 C-257.88788437 272.31159988 -257.88880585 271.38809235 -257.88975525 270.43659973 C-257.89648758 269.44045151 -257.90321991 268.44430328 -257.91015625 267.41796875 C-257.91394791 266.3633696 -257.91773956 265.30877045 -257.92164612 264.22221375 C-257.97784713 252.7698544 -258.16147456 241.31930565 -258.37231445 229.86889648 C-258.43663106 226.35990742 -258.49688981 222.85086631 -258.55664062 219.34179688 C-258.74534828 208.61206668 -258.96616671 197.88460005 -259.28092957 187.15776062 C-260.11600642 158.66903993 -260.52751066 130.17313433 -260.96279138 101.67612725 C-261.05166896 95.86768837 -261.14303176 90.05929064 -261.23503023 84.25090045 C-261.3360812 77.86876064 -261.43568856 71.48659913 -261.53457451 65.10442543 C-261.57602423 62.42982613 -261.61797399 59.75523616 -261.66017342 57.08064842 C-261.87007932 43.71976034 -262.07518183 30.36282083 -262 17 C-259.51953125 18.31640625 -259.51953125 18.31640625 -257 20 C-256.896875 20.969375 -256.79375 21.93875 -256.6875 22.9375 C-256.34739933 26.06304795 -256.34739933 26.06304795 -254.171875 27.27734375 C-252.15367923 28.26880006 -250.07852623 29.14219553 -248 30 C-248 26.7 -248 23.4 -248 20 C-250.31 20 -252.62 20 -255 20 C-255 19.67 -255 19.34 -255 19 C-252.03 18.67 -249.06 18.34 -246 18 C-246 20.64 -246 23.28 -246 26 C-244.92145752 25.91959473 -243.84291504 25.83918945 -242.73168945 25.75634766 C-222.49408938 24.25338668 -202.26182916 22.8437311 -181.99383545 21.82043457 C-171.70129635 21.29828771 -161.4473735 20.58879788 -151.18652344 19.61352539 C-144.76701439 19.01756755 -138.45049254 18.75030351 -132 19 C-132 19.33 -132 19.66 -132 20 C-135.63 20.66 -139.26 21.32 -143 22 C-143 22.33 -143 22.66 -143 23 C-144.05388916 23.05534912 -145.10777832 23.11069824 -146.19360352 23.16772461 C-150.12802 23.37518748 -154.06220614 23.58677198 -157.99633789 23.79956055 C-159.69452059 23.89084332 -161.39276264 23.98102927 -163.09106445 24.07006836 C-165.5413453 24.19872787 -167.99138099 24.33141578 -170.44140625 24.46484375 C-171.19273331 24.50343002 -171.94406036 24.5420163 -172.71815491 24.58177185 C-175.94070589 24.76059593 -179.07178093 25.01068347 -182.26757812 25.48632812 C-187.58841639 26.21860466 -192.91643201 26.46533218 -198.27734375 26.75390625 C-200.02707237 26.85166603 -200.02707237 26.85166603 -201.81214905 26.95140076 C-205.52044844 27.15793773 -209.22896309 27.36027738 -212.9375 27.5625 C-215.45899976 27.70219662 -217.98048433 27.84216753 -220.50195312 27.98242188 C-226.66777524 28.3253057 -232.83387097 28.66250791 -239 29 C-227.45 29 -215.9 29 -204 29 C-204 29.33 -204 29.66 -204 30 C-228.98265839 32.18137854 -228.98265839 32.18137854 -239 33 C-237.43805904 34.03309481 -235.84859641 35.02458524 -234.25 36 C-233.36828125 36.556875 -232.4865625 37.11375 -231.578125 37.6875 C-222.04277206 41.18518405 -210.21400316 38.70892896 -200.2109375 37.9765625 C-198.69856195 37.86890421 -197.18616099 37.76160229 -195.67373657 37.65463257 C-191.70842091 37.37313459 -187.74349514 37.08646943 -183.77862549 36.79876709 C-180.6133968 36.56994085 -177.44791394 36.34476216 -174.28240967 36.11978531 C-155.84999192 34.80973381 -137.42261333 33.44189732 -119 32 C-110.4170457 31.32837127 -101.83392391 30.65913759 -93.25 30 C-91.54799942 29.86927094 -91.54799942 29.86927094 -89.81161499 29.73590088 C-73.35128942 28.47911519 -56.89482862 27.39330958 -40.40136719 26.68359375 C-32.24350997 26.31847602 -24.17800848 25.66917142 -16.07124329 24.66671753 C-12.01936854 24.17421297 -8.08162749 23.90275142 -4 24 C-4 21.69 -4 19.38 -4 17 C-4.95003906 17.16371094 -5.90007812 17.32742187 -6.87890625 17.49609375 C-11.56533049 18.16558293 -16.21268306 18.10920922 -20.9375 18.0625 C-21.81212891 18.05798828 -22.68675781 18.05347656 -23.58789062 18.04882812 C-25.72529047 18.03714834 -27.86265463 18.01921689 -30 18 C-29.67 17.34 -29.34 16.68 -29 16 C-26.49975586 15.58935547 -26.49975586 15.58935547 -23.21484375 15.3671875 C-21.46010742 15.24150391 -21.46010742 15.24150391 -19.66992188 15.11328125 C-18.43822266 15.03464844 -17.20652344 14.95601562 -15.9375 14.875 C-14.08415039 14.74544922 -14.08415039 14.74544922 -12.19335938 14.61328125 C-9.12948555 14.40034793 -6.06480411 14.19909578 -3 14 C-9.93 14 -16.86 14 -24 14 C-23.34 13.01 -22.68 12.02 -22 11 C-20.02880859 10.65942383 -20.02880859 10.65942383 -17.6484375 10.70703125 C-16.37226563 10.7215332 -16.37226563 10.7215332 -15.0703125 10.73632812 C-14.18085938 10.76146484 -13.29140625 10.78660156 -12.375 10.8125 C-11.4778125 10.82603516 -10.580625 10.83957031 -9.65625 10.85351562 C-7.43724529 10.88892527 -5.21854824 10.94273346 -3 11 C-3 8.03 -3 5.06 -3 2 C-2.01 2.33 -1.02 2.66 0 3 C1.89212737 3.22179785 3.78884472 3.40614015 5.6875 3.5625 C6.68136719 3.64628906 7.67523438 3.73007813 8.69921875 3.81640625 C9.45847656 3.87699219 10.21773438 3.93757812 11 4 C11 3.34 11 2.68 11 2 C7.7 2 4.4 2 1 2 C0.67 1.34 0.34 0.68 0 0 Z M-54 72 C-54.33 74.64 -54.66 77.28 -55 80 C-57.5688407 80.85628023 -59.36970894 81.19588896 -62.01904297 81.38549805 C-62.83970245 81.44636093 -63.66036194 81.50722382 -64.50588989 81.56993103 C-65.4088681 81.63322098 -66.31184631 81.69651093 -67.2421875 81.76171875 C-69.24707714 81.90973826 -71.25195957 82.05785545 -73.25683594 82.20605469 C-74.33219604 82.28416382 -75.40755615 82.36227295 -76.51550293 82.44274902 C-100.27876779 84.17398503 -124.01531787 86.16911284 -147.75 88.25 C-148.92116489 88.35258432 -148.92116489 88.35258432 -150.11598969 88.45724106 C-159.74436488 89.30062981 -169.37238948 90.14792346 -179 91 C-179.02364311 99.5569293 -179.04116982 108.11384396 -179.05181217 116.6707983 C-179.05693153 120.64830146 -179.06381702 124.62578159 -179.07543945 128.60327148 C-179.13752725 150.42348371 -178.81113709 172.19389263 -178 194 C-161.68073923 192.89148361 -145.40462565 191.52117487 -129.125 189.9375 C-127.75784348 189.8057135 -127.75784348 189.8057135 -126.36306763 189.67126465 C-123.74433525 189.41805103 -121.12601651 189.16095785 -118.5078125 188.90234375 C-117.72237564 188.82634445 -116.93693878 188.75034515 -116.12770081 188.67204285 C-112.36088109 188.2943766 -108.70746567 187.74568574 -105 187 C-102.60432445 186.74472882 -100.20528214 186.52029362 -97.8046875 186.31640625 C-97.10849808 186.25670151 -96.41230865 186.19699677 -95.69502258 186.13548279 C-93.42192086 185.94154125 -91.1484818 185.75192958 -88.875 185.5625 C-87.28555399 185.42784244 -85.69611723 185.29307568 -84.10668945 185.15820312 C-74.80453345 184.37398041 -65.49941149 183.65929405 -56.1875 183 C-47.03185056 182.34303931 -37.88915087 181.57793804 -28.75283813 180.69335938 C-26.80458691 180.50526997 -24.85578948 180.32286526 -22.90698242 180.140625 C-17.05615371 179.55819314 -11.57188157 178.91224338 -6 177 C-4.95819074 171.87690305 -4.86442886 166.98184877 -4.88647461 161.78173828 C-4.88625557 160.41980095 -4.88625557 160.41980095 -4.8860321 159.03034973 C-4.88672609 156.04364594 -4.89449437 153.05700533 -4.90234375 150.0703125 C-4.90420976 147.99380528 -4.9056328 145.91729761 -4.90663147 143.84078979 C-4.91044226 138.38609595 -4.92026025 132.9314289 -4.93133545 127.47674561 C-4.94158051 121.90637576 -4.94613572 116.33600156 -4.95117188 110.765625 C-4.96188383 99.84373825 -4.97894296 88.92187136 -5 78 C-7.06729792 77.99405905 -9.13460082 77.98983523 -11.2019043 77.98632812 C-12.35313278 77.98379028 -13.50436127 77.98125244 -14.69047546 77.9786377 C-18.74658208 78.00481903 -22.76850322 78.20516674 -26.8125 78.5 C-27.86920898 78.57154297 -27.86920898 78.57154297 -28.94726562 78.64453125 C-30.63178003 78.75912407 -32.31593817 78.87893779 -34 79 C-34 77.35 -34 75.7 -34 74 C-39.28 74 -44.56 74 -50 74 C-50 73.34 -50 72.68 -50 72 C-51.32 72 -52.64 72 -54 72 Z M42.734375 73.421875 C36.06216719 74.11897134 29.37670889 74.62206569 22.6875 75.125 C20.95004517 75.25624268 20.95004517 75.25624268 19.17749023 75.39013672 C16.4517763 75.59503422 13.72596047 75.7984131 11 76 C10.24456495 80.77934599 9.83294275 85.43127637 9.70288086 90.2668457 C9.68322769 90.95762207 9.66357452 91.64839844 9.64332581 92.36010742 C9.57979191 94.63190888 9.52214523 96.90381469 9.46484375 99.17578125 C9.42168697 100.78501559 9.37827066 102.39424299 9.33460999 104.00346375 C9.24382277 107.38334993 9.15590369 110.76329508 9.07006836 114.14331055 C8.96195448 118.39351883 8.84725175 122.64351678 8.73050499 126.89349556 C8.21023511 145.93316196 7.84014326 164.9514707 8 184 C8.54357147 184.28373474 9.08714294 184.56746948 9.64718628 184.85980225 C19.33017961 189.91580702 28.95885257 195.04551448 38.49194336 200.37939453 C43.8873809 203.39436955 49.31758441 206.33529428 54.78100586 209.22509766 C59.53371014 211.73990011 64.23846329 214.33432316 68.92578125 216.96875 C70.9124068 218.14839629 70.9124068 218.14839629 73 218 C74.59267075 185.80346945 75.42672128 153.601181 76.125 121.375 C76.1472036 120.35498146 76.1694072 119.33496292 76.19228363 118.28403473 C76.34183981 111.40555856 76.48853148 104.52702626 76.6328125 97.6484375 C76.65184883 96.74647896 76.67088516 95.84452042 76.69049835 94.9152298 C76.74390927 92.36977297 76.79623564 89.82429645 76.84814453 87.27880859 C76.86370832 86.53929522 76.87927212 85.79978184 76.89530754 85.03785896 C76.98233911 80.69059328 77.01383534 76.34780996 77 72 C65.46114971 71.76262937 54.20977076 72.21438458 42.734375 73.421875 Z " fill="#AFADAC" transform="translate(279,2)"/>
<path d="M0 0 C0.11131955 13.09289178 0.04769688 26.16441512 -0.4375 39.25 C-0.47673584 40.32999268 -0.51597168 41.40998535 -0.55639648 42.52270508 C-0.8566952 50.03132584 -1.37799274 57.51149053 -2 65 C-2.66 65 -3.32 65 -4 65 C-3.773125 65.598125 -3.54625 66.19625 -3.3125 66.8125 C-3.209375 67.534375 -3.10625 68.25625 -3 69 C-3.48178711 69.44150391 -3.96357422 69.88300781 -4.45996094 70.33789062 C-6.51174298 72.55230599 -6.36109524 73.80028587 -6.328125 76.78125 C-6.32039063 78.16763672 -6.32039063 78.16763672 -6.3125 79.58203125 C-6.2815625 81.02642578 -6.2815625 81.02642578 -6.25 82.5 C-6.24226563 83.94439453 -6.24226563 83.94439453 -6.234375 85.41796875 C-6.20187151 90.7957293 -6.20187151 90.7957293 -5 96 C-4.01 96.33 -3.02 96.66 -2 97 C-2 97.66 -2 98.32 -2 99 C-1.34 99.33 -0.68 99.66 0 100 C-0.3196875 100.68449219 -0.639375 101.36898437 -0.96875 102.07421875 C-3.08762751 108.08573108 -3.52049178 115.67932731 -0.83203125 121.55078125 C2.9520542 126.7162038 7.71655614 131.28633349 14 133 C22.65745171 133.85681996 33.58088803 133.30117902 40.5390625 127.6328125 C42.86889777 125.02887896 44.41953738 122.11049577 45.95703125 118.98828125 C47 117 47 117 49 115 C49 131.5 49 148 49 165 C-44.39 165 -137.78 165 -234 165 C-229 161 -229 161 -226.9375 159.46484375 C-220.16799049 154.12839573 -216.6212794 148.03071376 -215.55859375 139.42578125 C-215.32601989 132.36603933 -215.83530691 127.72645299 -220 122 C-220 121.34 -220 120.68 -220 120 C-220.804375 119.5978125 -220.804375 119.5978125 -221.625 119.1875 C-224 118 -224 118 -226.625 116.4375 C-230.44283372 114.81138564 -233.62263752 114.51682483 -237.73046875 114.30859375 C-240 114 -240 114 -243 112 C-243.625 109.72265625 -243.625 109.72265625 -244 107.0625 C-244.54948556 103.17603439 -245.19334058 101.6777048 -248 99 C-248.125 95.875 -248.125 95.875 -248 93 C-248.33 92.67 -248.66 92.34 -249 92 C-249.09935148 89.98049791 -249.12799508 87.95749085 -249.12939453 85.93554688 C-249.13254669 84.63750122 -249.13569885 83.33945557 -249.13894653 82.0020752 C-249.13715675 80.57429979 -249.1351058 79.14652469 -249.1328125 77.71875 C-249.13348558 76.26525862 -249.13445564 74.81176736 -249.13571167 73.35827637 C-249.13718846 70.30833873 -249.1350347 67.25843034 -249.13037109 64.20849609 C-249.1246738 60.29069441 -249.12795291 56.37296122 -249.13394356 52.45516205 C-249.13754969 49.45269246 -249.13641035 46.45023923 -249.13381577 43.44776917 C-249.13314664 42.00281262 -249.13397442 40.55785461 -249.13629532 39.11289978 C-249.13882265 37.09675117 -249.13429052 35.08059738 -249.12939453 33.06445312 C-249.12859894 31.91497192 -249.12780334 30.76549072 -249.12698364 29.58117676 C-249 27 -249 27 -248 26 C-245.8327528 25.71166271 -243.65741016 25.4837961 -241.48046875 25.28125 C-240.49799919 25.18704773 -240.49799919 25.18704773 -239.49568176 25.09094238 C-237.39332926 24.88974327 -235.29049242 24.69438821 -233.1875 24.5 C-231.09527292 24.30513925 -229.00320605 24.10894805 -226.91145325 23.90905762 C-225.00532699 23.72708964 -223.09874146 23.54995203 -221.19213867 23.37304688 C-218.17853587 23.09141749 -218.17853587 23.09141749 -216.00415039 22.49560547 C-213.03318444 21.76091661 -210.06414054 21.59860144 -207.015625 21.3515625 C-205.60366364 21.23390079 -204.19171763 21.11605468 -202.77978516 20.99804688 C-202.04109192 20.93738037 -201.30239868 20.87671387 -200.5413208 20.81420898 C-188.58659462 19.82703093 -176.68044325 18.68710143 -164.78491211 17.12768555 C-147.67606737 14.89101564 -130.49503065 13.14046119 -113.3059082 11.64624023 C-110.04113615 11.35209571 -107.12196048 11.04065349 -104 10 C-102.22833025 9.85164052 -100.45232388 9.75229982 -98.67578125 9.68359375 C-97.64775391 9.64169922 -96.61972656 9.59980469 -95.56054688 9.55664062 C-94.48869141 9.51732422 -93.41683594 9.47800781 -92.3125 9.4375 C-90.68731445 9.37272461 -90.68731445 9.37272461 -89.02929688 9.30664062 C-86.35299209 9.20053162 -83.67659474 9.09847639 -81 9 C-80.94550162 10.72880982 -80.90698312 12.45812712 -80.875 14.1875 C-80.85179687 15.15042969 -80.82859375 16.11335938 -80.8046875 17.10546875 C-81.02547609 20.37755561 -81.59681294 23.59681294 -84 26 C-84.36309609 29.38507482 -84.37168589 32.78559139 -84.4375 36.1875 C-84.48326172 37.13431641 -84.52902344 38.08113281 -84.57617188 39.05664062 C-84.72426295 44.32585112 -84.72426295 44.32585112 -82.63330078 49.01416016 C-80.83653067 50.87945066 -80.83653067 50.87945066 -78 53 C-78.350625 53.928125 -78.70125 54.85625 -79.0625 55.8125 C-80.80112984 61.97900728 -80.31290912 69.04890216 -77.4375 74.8125 C-74.83165398 78.82298421 -70.93373908 81.39342046 -67 84 C-66.34 83.34 -65.68 82.68 -65 82 C-64.14019531 82.31066406 -63.28039062 82.62132812 -62.39453125 82.94140625 C-55.4358737 85.11148242 -47.81821346 86.45705529 -41.0625 83.125 C-35.59843842 79.54266865 -32.04688689 74.14066068 -30 68 C-29.48364055 60.38369818 -30.91897051 55.09181524 -35.1875 48.75 C-41.77082339 42.31297269 -49.06522094 41.13173868 -58 40 C-58.12375 39.360625 -58.2475 38.72125 -58.375 38.0625 C-58.58125 37.381875 -58.7875 36.70125 -59 36 C-59.66 35.67 -60.32 35.34 -61 35 C-61.30859375 33.109375 -61.30859375 33.109375 -61.4375 30.75 C-61.78559163 26.76909757 -62.61112837 24.28469849 -65 21 C-66.38226016 18.23547967 -66.09525387 15.9538637 -66.0625 12.875 C-66.05347656 11.77929688 -66.04445313 10.68359375 -66.03515625 9.5546875 C-66.01775391 8.29011719 -66.01775391 8.29011719 -66 7 C-61.05863653 5.4439418 -56.52315872 4.62555146 -51.328125 4.21875 C-50.61175873 4.16032425 -49.89539246 4.1018985 -49.15731812 4.04170227 C-46.85532721 3.85494707 -44.5527198 3.67751717 -42.25 3.5 C-39.09608643 3.24674976 -35.94257516 2.98865719 -32.7890625 2.73046875 C-32.02133514 2.66824631 -31.25360779 2.60602386 -30.46261597 2.54191589 C-23.76850818 1.99458556 -17.09140857 1.32656208 -10.41894531 0.55859375 C-6.92028013 0.16322584 -3.51860622 -0.03193269 0 0 Z " fill="#040403" transform="translate(351,235)"/>
<path d="M0 0 C132 0 264 0 400 0 C400 111.21 400 222.42 400 337 C398.91125755 335.36688633 397.8231452 333.73334895 396.73828125 332.09765625 C392.73220465 326.37939349 388.97911693 322.7596496 381.9921875 321.42578125 C379.89076705 321.10930227 377.78356698 320.82834703 375.671875 320.58984375 C372.72458316 319.93919891 371.68629432 319.47885265 370 317 C369.56617384 314.69738422 369.49980305 312.49507628 369.40625 310.15625 C369.19449124 307.91838501 369.19449124 307.91838501 367.53125 306.53125 C364.84926917 303.84926917 365.01706042 300.48957469 364.88943481 296.8271637 C364.89772308 295.64613571 364.90601135 294.46510773 364.91455078 293.24829102 C364.91848406 292.59548692 364.92241734 291.94268282 364.9264698 291.27009678 C364.9866351 283.52094651 365.17107026 275.77402636 365.3671875 268.02734375 C365.40724965 266.41345756 365.44729855 264.79957103 365.48733521 263.1856842 C365.57165827 259.80970509 365.65767167 256.43377355 365.74462891 253.05786133 C365.83122212 249.68553682 365.91456008 246.31315947 365.99462891 242.94067383 C366.42096992 225.01376986 366.98591856 207.1147443 368.00390625 189.2109375 C369.13381917 169.29812166 369.60146354 149.38413986 370.00616455 129.44519043 C370.15645369 122.08835005 370.31577462 114.73169699 370.47667885 107.37508202 C370.51547079 105.60000416 370.55397544 103.82491999 370.59218407 102.04982948 C370.83965113 90.62134208 371.18580309 79.20559775 371.6854248 67.78497314 C371.99982538 60.49658166 372.12469644 53.23362101 372.0625 45.9375 C372.05573242 44.31811523 372.05573242 44.31811523 372.04882812 42.66601562 C372.03747074 40.11060476 372.021363 37.55534295 372 35 C368.99686252 33.49843126 366.20932478 33.90718796 362.875 33.9375 C361.59367187 33.94652344 360.31234375 33.95554688 358.9921875 33.96484375 C358.00476563 33.97644531 357.01734375 33.98804688 356 34 C356 35.98 356 37.96 356 40 C346.21742879 37.28384592 336.76086105 33.80158649 327.5625 29.5 C322.32390093 27.06344229 316.95847121 25.16254818 311.5078125 23.2578125 C306.25649879 21.37482473 301.06542867 19.34021295 296 17 C295.06929688 16.57332031 294.13859375 16.14664062 293.1796875 15.70703125 C291 14 291 14 290.51171875 11.30078125 C290.67447917 8.53385417 290.83723958 5.76692708 291 3 C287.37 3 283.74 3 280 3 C283.3 3.33 286.6 3.66 290 4 C290 4.66 290 5.32 290 6 C288.20841511 6.02696365 286.41671527 6.04637917 284.625 6.0625 C283.62726563 6.07410156 282.62953125 6.08570313 281.6015625 6.09765625 C279 6 279 6 277 5 C276.67 7.64 276.34 10.28 276 13 C275.25593903 13.04567108 274.51187805 13.09134216 273.74526978 13.13839722 C266.60119746 13.57726806 259.45725077 14.01811587 252.31342506 14.46098137 C248.64407081 14.68839026 244.97467836 14.91513284 241.30517578 15.14013672 C223.72498953 16.21866267 206.1590961 17.39886971 188.60064697 18.79498291 C183.11097501 19.22775083 177.61858529 19.62026902 172.125 20 C170.37086792 20.12181641 170.37086792 20.12181641 168.58129883 20.24609375 C161.72427279 20.7114319 154.86655724 21.12839003 148.00390625 21.5 C147.23081116 21.5419751 146.45771606 21.5839502 145.66119385 21.62719727 C141.91976033 21.82916871 138.17816178 22.02615596 134.43603516 22.21484375 C126.14187978 22.64458776 117.87595978 23.24383767 109.6015625 23.9609375 C97.4624771 25.00766583 85.31459675 25.7588508 73.1496582 26.43261719 C69.64440742 26.62739454 66.13959491 26.82904364 62.63476562 27.03125 C60.36460611 27.15925866 58.09442456 27.28687738 55.82421875 27.4140625 C54.79697189 27.47340973 53.76972504 27.53275696 52.71134949 27.59390259 C46.13407488 27.95265873 39.58661618 28.06816196 33 28 C32.505 24.535 32.505 24.535 32 21 C31.24074219 21.09539063 30.48148438 21.19078125 29.69921875 21.2890625 C28.70535156 21.39992188 27.71148438 21.51078125 26.6875 21.625 C25.70136719 21.74101562 24.71523438 21.85703125 23.69921875 21.9765625 C21 22 21 22 18 20 C18.79580088 101.39804809 18.79580088 101.39804809 20.56149292 182.77807617 C21.00645236 197.95409451 21.29049166 213.13250206 21.5625 228.3125 C21.58473633 229.51321136 21.60697266 230.71392273 21.62988281 231.95101929 C21.77731403 239.9671104 21.89806754 247.98320927 22 256 C22.0166571 257.13564392 22.03331421 258.27128784 22.05047607 259.44134521 C22.09565215 262.74604897 22.12621083 266.0505657 22.15234375 269.35546875 C22.16745499 270.34323807 22.18256622 271.33100739 22.19813538 272.34870911 C22.22709008 278.77865893 21.65059295 283.52411058 18 289 C17.54613125 292.27624582 17.62970043 295.57059929 17.625 298.875 C17.60050781 299.77347656 17.57601563 300.67195313 17.55078125 301.59765625 C17.53167079 305.91024945 17.58757597 308.33299324 19.8984375 312.0703125 C21.84919213 314.03940011 21.84919213 314.03940011 24 315 C23.93039063 316.59328125 23.93039063 316.59328125 23.859375 318.21875 C23.43773898 329.21704736 23.43773898 329.21704736 28 339 C32.37474039 343.62472555 38.22112853 345.79526238 44.5234375 346.13671875 C51.66896135 345.75195977 56.93202097 343.37477693 61.7578125 338.06640625 C67.55546372 330.65829636 68.91926564 324.35556422 68 315 C66.83203316 309.93647907 65.12784369 305.4603992 61.0625 302.0625 C56.69499997 299.35789933 51.67703191 298.5540427 46.6953125 297.578125 C44 297 44 297 43 296 C42.50722937 293.75117405 42.10127459 291.4925691 41.6953125 289.2265625 C41.17291773 286.93626515 41.17291773 286.93626515 39.4921875 285.5234375 C35.92620783 281.88277763 36.79067491 275.63596861 36.68359375 270.82421875 C36.65235413 269.6321431 36.65235413 269.6321431 36.6204834 268.41598511 C36.55469623 265.83991636 36.49575457 263.26374925 36.4375 260.6875 C36.39464172 258.92244395 36.35175425 257.15738862 36.30883789 255.39233398 C36.00102288 242.25972506 35.88094016 229.13626848 36 216 C40.61730601 219.04956955 45.1659816 222.1853071 49.6875 225.375 C50.77877197 226.14469116 50.77877197 226.14469116 51.89208984 226.92993164 C59.99031488 232.66610272 68.03916966 238.49181896 75.91870117 244.52587891 C77.9305835 246.03725543 77.9305835 246.03725543 80.07543945 247.00146484 C82.29238916 248.1405154 83.51834384 248.98124348 85 251 C86.0806669 255.88579121 85.98074476 260.77121509 85.9375 265.75 C85.94746547 267.26312197 85.96015222 268.77622809 85.9753418 270.28930664 C86.0024048 273.64055471 86.00620118 276.99094742 85.99707031 280.34228516 C85.9891259 285.46495309 86.05408297 290.58491962 86.13102722 295.7069397 C86.1956265 300.17719382 86.24012534 304.64750597 86.28005981 309.11804199 C86.3016665 311.32895638 86.32857329 313.5398254 86.36080933 315.75061035 C86.40241792 318.87433796 86.41753594 321.99712273 86.42578125 325.12109375 C86.45193008 326.53137093 86.45193008 326.53137093 86.47860718 327.97013855 C86.45727622 334.47363 86.45727622 334.47363 84.01098633 337.28955078 C83.34736084 337.85399902 82.68373535 338.41844727 82 339 C81.16628181 342.77322327 81.35112808 346.58218544 81.375 350.4375 C81.34277344 351.47455078 81.31054688 352.51160156 81.27734375 353.58007812 C81.06836002 358.98640559 81.06836002 358.98640559 83.39086914 363.59912109 C83.94121826 363.99566895 84.49156738 364.3922168 85.05859375 364.80078125 C86.02925781 365.52652344 86.99992187 366.25226563 88 367 C88.26171875 370.234375 88.26171875 370.234375 87.6875 373.75 C86.78557064 381.44055835 87.68625298 386.28147801 91.75 392.8125 C94.6023881 395.5856551 97.47223269 397.16827467 101 399 C101 399.33 101 399.66 101 400 C67.67 400 34.34 400 0 400 C0 268 0 136 0 0 Z " fill="#020202" transform="translate(0,0)"/>
<path d="M0 0 C1.15242187 0.00902344 2.30484375 0.01804687 3.4921875 0.02734375 C4.36101562 0.03894531 5.22984375 0.05054687 6.125 0.0625 C6.14817818 12.08456577 6.16594305 24.10662622 6.17681217 36.12870979 C6.182029 41.71114008 6.1891049 47.29355508 6.20043945 52.87597656 C6.21131092 58.26408921 6.21728589 63.65218714 6.21987724 69.04030991 C6.2217238 71.09517524 6.22532964 73.15003977 6.23073006 75.20489883 C6.23799697 78.0846963 6.23898855 80.96443311 6.23852539 83.84423828 C6.24212067 84.69228531 6.24571594 85.54033234 6.24942017 86.41407776 C6.2418906 90.74540086 5.99245003 94.79681455 5.125 99.0625 C-0.05304984 100.69713593 -4.96198345 101.55488977 -10.359375 102.0625 C-11.16416794 102.14307648 -11.96896088 102.22365295 -12.79814148 102.30667114 C-15.40646951 102.56552444 -18.01562327 102.81445937 -20.625 103.0625 C-22.43889955 103.23925558 -24.2527829 103.41617744 -26.06665039 103.59326172 C-39.28561811 104.87099407 -52.51079525 105.9344424 -65.76025391 106.84472656 C-71.17564701 107.22335414 -76.5879372 107.63923783 -82 108.0625 C-82.94673584 108.13355957 -83.89347168 108.20461914 -84.86889648 108.27783203 C-91.30127896 108.78344385 -97.70179833 109.48822364 -104.10710144 110.25694275 C-111.86632192 111.1878826 -119.63313625 112.04026864 -127.40405273 112.86743164 C-129.00810462 113.03897495 -130.61194859 113.21247395 -132.21557617 113.38793945 C-143.75941373 114.65049163 -155.27444192 115.52767639 -166.875 116.0625 C-167.71491947 93.48262494 -168.00968557 70.94128714 -167.94366455 48.347229 C-167.93314773 44.34281989 -167.92880845 40.33840352 -167.92382812 36.33398438 C-167.91333063 28.57680448 -167.89643331 20.81965825 -167.875 13.0625 C-121.31636991 8.96191179 -74.7816646 4.87407461 -28.12353516 2.0637207 C-27.15232224 2.00413681 -26.18110931 1.94455292 -25.1804657 1.88316345 C-23.36227561 1.77170099 -21.54393213 1.66270187 -19.72541809 1.55665588 C-18.50093208 1.48099648 -18.50093208 1.48099648 -17.25170898 1.40380859 C-16.54771469 1.36178314 -15.8437204 1.31975769 -15.11839294 1.27645874 C-12.76494751 1.08399489 -12.76494751 1.08399489 -10.03114319 0.54507446 C-6.63660295 0.02604908 -3.43176515 -0.03501801 0 0 Z " fill="#030302" transform="translate(267.875,79.9375)"/>
<path d="M0 0 C-0.40167087 30.71806727 -0.94538752 61.42187566 -2 92.125 C-2.04179382 93.34272095 -2.08358765 94.56044189 -2.12664795 95.81506348 C-2.70607465 112.54505318 -3.3467989 129.2727484 -4 146 C-7.92998562 144.78055855 -11.41626306 143.36717819 -14.99609375 141.34375 C-19.25839392 138.96707239 -23.53795785 136.63359673 -27.84765625 134.34375 C-29.04239093 133.70716865 -30.23705172 133.07044862 -31.43164062 132.43359375 C-33.24942212 131.46505743 -35.06759679 130.49729508 -36.88696289 129.53173828 C-43.5123868 126.0139558 -50.05130429 122.41524973 -56.44825745 118.49377441 C-59.01919399 116.98876395 -61.62639732 115.64105844 -64.29711914 114.32226562 C-65.62496178 113.66466248 -65.62496178 113.66466248 -66.97962952 112.99377441 C-67.97971291 112.50185608 -67.97971291 112.50185608 -69 112 C-69.16689558 92.11272269 -68.74648113 72.25741063 -68.20043945 52.37963867 C-68.08319858 48.10793911 -67.9729197 43.83609013 -67.86443424 39.56416035 C-67.77896132 36.23115622 -67.68966731 32.89826272 -67.59924126 29.56538963 C-67.55695625 27.98866193 -67.51589035 26.41190099 -67.4761219 24.8351078 C-67.42037813 22.64555988 -67.35940856 20.45621591 -67.29711914 18.2668457 C-67.26380997 17.02844437 -67.23050079 15.79004303 -67.19618225 14.51411438 C-66.99787625 10.96195828 -66.55520694 7.51258001 -66 4 C-65.32235596 3.9498877 -64.64471191 3.89977539 -63.9465332 3.84814453 C-60.73501742 3.60933187 -57.52373435 3.36756803 -54.3125 3.125 C-53.13163818 3.03621582 -51.95077637 2.94743164 -50.73413086 2.85595703 C-45.23786527 2.43467662 -39.74837463 1.99469959 -34.265625 1.421875 C-33.38221436 1.33019043 -32.49880371 1.23850586 -31.58862305 1.14404297 C-29.99799684 0.97463444 -28.40814166 0.79764796 -26.81958008 0.60986328 C-17.91184545 -0.33641098 -8.94517098 -0.07236543 0 0 Z " fill="#030303" transform="translate(356,74)"/>
<path d="M0 0 C2.38698179 1.27034126 4.77365449 2.5412575 7.16015625 3.8125 C7.83002563 4.16892578 8.49989502 4.52535156 9.19006348 4.89257812 C12.95588979 6.89917791 16.70657874 8.92891603 20.4375 11 C25.57973641 13.8209279 30.81498918 16.43870551 36.07983398 19.02148438 C39.68930244 20.80222252 43.23494707 22.66432628 46.74951172 24.62670898 C47.54880096 25.07247787 48.34809021 25.51824677 49.17160034 25.9775238 C49.77497223 26.31494095 50.37834412 26.65235809 51 27 C51.17158535 38.54159732 51.33807824 50.08326306 51.5 61.625 C51.51187725 62.47138786 51.5237545 63.31777573 51.53599167 64.18981171 C51.88443811 89.1272459 52.17104043 114.05967383 52 139 C42.89740722 140.52953403 33.80849792 141.60136272 24.62207031 142.43261719 C22.47413577 142.6273448 20.32691453 142.82888334 18.1796875 143.03125 C7.33182599 144.03539701 7.33182599 144.03539701 2 144 C1.9845388 142.78994797 1.9845388 142.78994797 1.96876526 141.55545044 C1.86936605 133.82280925 1.76669631 126.09022073 1.66066074 118.35766792 C1.60629937 114.38560075 1.55305381 110.41352622 1.50268555 106.44140625 C1.31143226 91.4120528 1.11926917 76.3929382 0.46875 61.375 C-0.0856764 48.53833035 -0.11398759 35.72164028 -0.0625 22.875 C-0.05746174 20.63281353 -0.05290305 18.39062593 -0.04882812 16.1484375 C-0.03803696 10.76559946 -0.02149301 5.38280544 0 0 Z " fill="#020202" transform="translate(33,58)"/>
<path d="M0 0 C0.66 0 1.32 0 2 0 C2 0.66 2 1.32 2 2 C4.97 2.99 7.94 3.98 11 5 C11 7.64 11 10.28 11 13 C10.34 13 9.68 13 9 13 C9.11458693 14.43836751 9.24209116 15.87570966 9.375 17.3125 C9.44460937 18.11300781 9.51421875 18.91351563 9.5859375 19.73828125 C9.89564426 22.27224441 9.89564426 22.27224441 12 25 C12.23377991 27.04603577 12.23377991 27.04603577 12.21118164 29.42602539 C12.20780289 30.32289566 12.20442413 31.21976593 12.20094299 32.14381409 C12.18748337 33.118582 12.17402374 34.09334991 12.16015625 35.09765625 C12.15495468 36.1193541 12.14975311 37.14105194 12.14439392 38.19371033 C12.12656652 41.48345011 12.09554817 44.77288058 12.0625 48.0625 C11.95053885 60.84651581 11.91226157 73.58951503 12.4921875 86.36328125 C13.19746124 102.16375889 13.11464863 117.95874836 13.06866455 133.77105713 C13.05821449 137.7614283 13.05382179 141.75180644 13.04882812 145.7421875 C13.0382793 153.4948098 13.02134063 161.24739906 13 169 C14.59328125 168.7834375 14.59328125 168.7834375 16.21875 168.5625 C17.6457979 168.37473054 19.07288329 168.18724581 20.5 168 C21.54414062 167.85691406 21.54414062 167.85691406 22.609375 167.7109375 C27.44700129 167.0838378 32.12181196 166.91210472 37 167 C33.98454253 168.72571361 31.6946087 169.28097659 28.234375 169.4140625 C27.34492187 169.45273438 26.45546875 169.49140625 25.5390625 169.53125 C24.15847656 169.57765625 24.15847656 169.57765625 22.75 169.625 C21.81414063 169.66367188 20.87828125 169.70234375 19.9140625 169.7421875 C17.60956946 169.83624844 15.30507987 169.92189399 13 170 C13 170.66 13 171.32 13 172 C12.34 172 11.68 172 11 172 C11.144375 173.299375 11.28875 174.59875 11.4375 175.9375 C11.55931641 177.03384766 11.55931641 177.03384766 11.68359375 178.15234375 C11.81886614 180.01140229 11.81886614 180.01140229 13 181 C16.25730787 201.45118277 15.2149109 222.76636643 15.03173828 243.40014648 C15.01234284 245.6000376 15 247.80002339 15 250 C14.505 251.98 14.505 251.98 14 254 C10.7 254.33 7.4 254.66 4 255 C4 253.35 4 251.7 4 250 C3.34 249.67 2.68 249.34 2 249 C2.66 249 3.32 249 4 249 C3.93361328 247.71451263 3.86722656 246.42902527 3.79882812 245.10458374 C3.06732672 230.37599204 2.72610403 215.65805326 2.5 200.9140625 C2.45952055 198.42752157 2.41877283 195.94098499 2.3777771 193.45445251 C2.28107439 187.542275 2.18734834 181.63005525 2.09526074 175.71780449 C2.02100568 170.95433701 1.94542132 166.19089224 1.86895752 161.42745972 C1.85805977 160.74837093 1.84716202 160.06928214 1.83593404 159.3696149 C1.81389839 157.99650852 1.79186259 156.62340214 1.76982665 155.25029576 C1.52531443 139.99795949 1.28828963 124.74551258 1.05378723 109.4930191 C1.00333774 106.21675758 0.95260544 102.9405006 0.9017334 99.66424561 C0.73125727 88.67845754 0.56505469 77.69262056 0.40625 66.70665741 C0.37574613 64.61369428 0.34447517 62.52074396 0.31298828 60.42779541 C0.01381415 40.28391911 -0.0454781 20.14551719 0 0 Z " fill="#C0BFBE" transform="translate(22,33)"/>
<path d="M0 0 C0.70640625 0.32484375 1.4128125 0.6496875 2.140625 0.984375 C9.79899037 3.70455942 18.35085998 2.03977067 26 0 C26.268125 0.78375 26.53625 1.5675 26.8125 2.375 C27.84814432 5.28114923 27.84814432 5.28114923 31 7 C31.6875 10.125 31.6875 10.125 32 13 C32.66 12.67 33.32 12.34 34 12 C38.20788414 11.39227999 42.23727713 11.11537426 46.109375 13.05859375 C51.29079285 17.14394244 53.22021209 21.74299457 54.3828125 28.08984375 C54.97514137 35.2106669 51.89751161 41.20327722 48 47 C45.55059549 49.47856409 43.01101855 51.26638326 40 53 C38.5459375 53.928125 38.5459375 53.928125 37.0625 54.875 C31.73021076 56.83380013 27.04399714 56.69418771 21.6875 54.875 C17.60919114 52.02966824 15.55858337 48.67575011 14 44 C13.54542267 37.95306439 14.01057257 32.71960387 16 27 C15.27167969 26.73058594 14.54335937 26.46117187 13.79296875 26.18359375 C11.06381684 25.02704406 8.77422158 23.70504088 6.3125 22.0625 C5.54550781 21.55847656 4.77851562 21.05445313 3.98828125 20.53515625 C2 19 2 19 0 16 C-0.14245897 13.23344676 -0.18769445 10.57346694 -0.125 7.8125 C-0.11597656 7.06291016 -0.10695313 6.31332031 -0.09765625 5.54101562 C-0.07412578 3.69387346 -0.03825561 1.84689588 0 0 Z " fill="#B1AEAC" transform="translate(81,342)"/>
<path d="M0 0 C0.721875 0.474375 1.44375 0.94875 2.1875 1.4375 C6.61050114 3.89472285 10.56702351 4.13889562 15.5625 4.125 C16.49191406 4.12757813 17.42132813 4.13015625 18.37890625 4.1328125 C20.74147476 4.01309964 22.74030763 3.66993233 25 3 C25.28875 3.9075 25.5775 4.815 25.875 5.75 C26.84374323 8.87808472 26.84374323 8.87808472 28.1875 11.0625 C29.27773663 13.66229505 28.62365277 15.30635079 28 18 C28.70125 17.95359375 29.4025 17.9071875 30.125 17.859375 C38.52668532 17.53974567 43.48020604 19.01582686 49.875 24.4375 C53.34890958 28.62662626 54.54805919 32.24065465 54.37109375 37.7578125 C53.11963083 45.31928318 48.78712288 50.9971507 42.90625 55.66015625 C37.89030412 59.18570837 33.96425123 59.20217801 28 59 C28 58.67 28 58.34 28 58 C29.85625 57.505 29.85625 57.505 31.75 57 C32.79414063 56.7215625 32.79414063 56.7215625 33.859375 56.4375 C36 56 36 56 40 56 C40 55.34 40 54.68 40 54 C39.071875 54.495 39.071875 54.495 38.125 55 C32.58242851 56.77362288 27.19618546 56.74587431 21.6875 54.875 C17.91047703 52.23986769 15.08375265 49.1675053 13 45 C12.93049459 43.45976004 12.91547643 41.91665012 12.9375 40.375 C12.95103516 39.14910156 12.95103516 39.14910156 12.96484375 37.8984375 C12.97644531 37.27195312 12.98804688 36.64546875 13 36 C12.34 38.64 11.68 41.28 11 44 C10.67 44 10.34 44 10 44 C9.6309795 33.44191344 9.6309795 33.44191344 12 29 C10.68 28.67 9.36 28.34 8 28 C6.35199144 31.66447432 5.66419027 34.81203466 5.375 38.8125 C5.30023438 39.78832031 5.22546875 40.76414062 5.1484375 41.76953125 C5.09945313 42.50558594 5.05046875 43.24164063 5 44 C4.67 44 4.34 44 4 44 C3.94558344 42.10448978 3.90701965 40.2085208 3.875 38.3125 C3.85179687 37.25675781 3.82859375 36.20101562 3.8046875 35.11328125 C4.00141271 31.97748141 4.66942346 29.82354627 6 27 C5.57122559 26.61577881 5.14245117 26.23155762 4.70068359 25.83569336 C1.24369627 22.36612602 -0.41260586 19.91490594 -0.5859375 14.94140625 C-0.54651083 13.14749256 -0.47560396 11.35402439 -0.375 9.5625 C-0.34792969 8.64017578 -0.32085937 7.71785156 -0.29296875 6.76757812 C-0.22276119 4.5092348 -0.12452894 2.25588963 0 0 Z " fill="#AFADAC" transform="translate(344,308)"/>
<path d="M0 0 C2 1.4375 2 1.4375 4 4 C4.35442445 7.02824418 4.23347235 9.96485939 4 13 C4.99 13.33 5.98 13.66 7 14 C7 15.32 7 16.64 7 18 C8.9490625 17.87625 8.9490625 17.87625 10.9375 17.75 C19.11523152 17.76285807 25.14752367 21.59771416 31 27 C30.67 27.66 30.34 28.32 30 29 C29.46890625 28.59007812 28.9378125 28.18015625 28.390625 27.7578125 C27.68421875 27.21898437 26.9778125 26.68015625 26.25 26.125 C25.55390625 25.59132813 24.8578125 25.05765625 24.140625 24.5078125 C19.94599922 21.55320383 16.90805763 20.71139506 11.75 20.375 C10.13351562 20.26285156 10.13351562 20.26285156 8.484375 20.1484375 C7.66453125 20.09945313 6.8446875 20.05046875 6 20 C6 21.32 6 22.64 6 24 C6.7734375 23.95359375 7.546875 23.9071875 8.34375 23.859375 C15.08578484 23.62574013 20.56024018 23.68093144 26 28 C30.72746868 33.09384751 32.41271787 37.84843504 32.26953125 44.8515625 C31.6589542 49.71848103 29.64463934 53.47448947 26.05859375 56.80078125 C21.30880973 60.46590004 17.90170239 62.14158055 11.8125 62.0625 C10.91144531 62.05347656 10.01039063 62.04445313 9.08203125 62.03515625 C8.39496094 62.02355469 7.70789063 62.01195312 7 62 C7 61.67 7 61.34 7 61 C7.64066406 60.90203125 8.28132813 60.8040625 8.94140625 60.703125 C15.44023815 59.57963096 21.34401594 58.51884182 25.5390625 52.9609375 C26.77463444 51.00749136 27.92315615 49.04451458 29 47 C27.73472666 48.18442813 27.73472666 48.18442813 26.3125 50.8125 C23.22964733 55.06183747 19.96539448 57.34486851 15 59 C8.28612894 59.72743541 2.42682568 59.29573563 -3 55 C-6.29059308 51.30909146 -7.8628752 48.17535541 -8.4375 43.25 C-8.04301705 40.31955525 -7.57889194 38.46701865 -6 36 C-6.99 36.495 -6.99 36.495 -8 37 C-8.7605726 46.52828863 -8.7605726 46.52828863 -4.4453125 54.6640625 C-2.47030771 56.48960747 -0.41479211 57.82710098 2 59 C0.375 59.8125 0.375 59.8125 -2 60 C-6.64730744 56.90179504 -10.11459357 53.33665888 -12 48 C-12.89532779 42.23569863 -12.09415801 38.02800676 -9 33 C-10.485 33.495 -10.485 33.495 -12 34 C-13.7455789 39.23673671 -14.19887702 45.20416325 -11.98828125 50.359375 C-10.75118153 52.33576254 -9.44541327 54.17172428 -8 56 C-7.401875 56.825 -6.80375 57.65 -6.1875 58.5 C-5.795625 58.995 -5.40375 59.49 -5 60 C-9.09996231 58.48149544 -11.72932585 55.64270694 -14 52 C-16.82261282 44.73358137 -16.33335734 38.29174168 -14 31 C-14.98226563 30.23429687 -15.96453125 29.46859375 -16.9765625 28.6796875 C-19.8465955 25.8096545 -20.45096871 23.8563146 -20.5859375 19.8203125 C-20.54636819 17.9209855 -20.47525283 16.02209203 -20.375 14.125 C-20.34792969 13.15046875 -20.32085937 12.1759375 -20.29296875 11.171875 C-20.22258833 8.77894071 -20.12421408 6.39064338 -20 4 C-19.34 3.67 -18.68 3.34 -18 3 C-18.33 4.65 -18.66 6.3 -19 8 C-11.99740213 9.01855969 -4.9042648 9.95931839 2 8 C1.72382467 6.05925139 1.72382467 6.05925139 1 4 C0.01 3.34 -0.98 2.68 -2 2 C-1.34 2 -0.68 2 0 2 C0 1.34 0 0.68 0 0 Z " fill="#837E78" transform="translate(286,257)"/>
<path d="M0 0 C0 2.31 0 4.62 0 7 C-13.71061503 9.05248728 -27.35018519 10.29657644 -41.1875 10.9375 C-56.58607277 11.65608562 -71.94340685 12.6825388 -87.3125 13.875 C-91.8437171 14.22568735 -96.3749604 14.57603185 -100.90625 14.92578125 C-102.0528006 15.01434387 -103.1993512 15.10290649 -104.38064575 15.19415283 C-118.89143709 16.30841468 -133.41025775 17.3079247 -147.92895508 18.31280518 C-159.97620197 19.14703784 -172.02224277 19.98756184 -184.0625 20.91796875 C-184.9918486 20.98947647 -185.9211972 21.06098419 -186.87870789 21.13465881 C-191.12776803 21.46235257 -195.37632821 21.79505089 -199.62426758 22.13696289 C-223.98923365 24.06826928 -223.98923365 24.06826928 -231.75 19.5 C-232.36359375 19.16613281 -232.9771875 18.83226563 -233.609375 18.48828125 C-235.08531654 17.68112572 -236.54474237 16.8438772 -238 16 C-238 15.67 -238 15.34 -238 15 C-236.18168922 14.89057823 -236.18168922 14.89057823 -234.3266449 14.77894592 C-222.8941962 14.09059163 -211.46193348 13.39921933 -200.02984524 12.7049036 C-194.1527182 12.34805958 -188.27553114 11.99227342 -182.39819336 11.63891602 C-176.72463426 11.29777095 -171.05125073 10.9538325 -165.37797737 10.60796928 C-163.21514957 10.47660582 -161.05226072 10.34624333 -158.88931084 10.21690559 C-155.85629597 10.03536787 -152.82351904 9.85024953 -149.79077148 9.66430664 C-148.89956604 9.61179749 -148.0083606 9.55928833 -147.09014893 9.50518799 C-142.34658631 9.21029907 -137.70313805 8.71365166 -133 8 C-130.22698981 7.80444982 -127.46314774 7.6349039 -124.6875 7.5 C-123.5286731 7.4390918 -123.5286731 7.4390918 -122.34643555 7.37695312 C-119.07266157 7.20497995 -115.79852963 7.04032023 -112.52441406 6.875 C-110.12030347 6.7525463 -107.71640847 6.62634997 -105.3125 6.5 C-104.21844849 6.44682617 -104.21844849 6.44682617 -103.10229492 6.39257812 C-99.94150948 6.22612494 -96.84541007 5.97701995 -93.71362305 5.51147461 C-88.57792526 4.80413868 -83.44474355 4.57617593 -78.26953125 4.31640625 C-77.13303635 4.25656555 -75.99654144 4.19672485 -74.8256073 4.1350708 C-72.40374036 4.00757751 -69.98180703 3.88133996 -67.55981445 3.7562561 C-41.15523395 2.3947721 -41.15523395 2.3947721 -14.78051758 0.55883789 C-9.83285006 0.17261966 -4.96313771 -0.08961221 0 0 Z " fill="#050505" transform="translate(275,19)"/>
<path d="M0 0 C0.99 1.485 0.99 1.485 2 3 C5.44081271 4.14693757 8.18746712 4.16819738 11.8125 4.1875 C13.61654297 4.20876953 13.61654297 4.20876953 15.45703125 4.23046875 C18.98083425 4.00124672 21.72129528 3.27030979 25 2 C25 3.65 25 5.3 25 7 C27.475 7.495 27.475 7.495 30 8 C30 10.31 30 12.62 30 15 C30.99 14.67 31.98 14.34 33 14 C35.33299825 13.96045766 37.66708189 13.95598268 40 14 C40.495 14.99 40.495 14.99 41 16 C37.37 16 33.74 16 30 16 C30.33 18.64 30.66 21.28 31 24 C31.66 24 32.32 24 33 24 C32.773125 23.401875 32.54625 22.80375 32.3125 22.1875 C32.1578125 21.1046875 32.1578125 21.1046875 32 20 C33.4375 18.25 33.4375 18.25 35 17 C40.83364374 18.05005587 43.20371441 19.79402756 46.73828125 24.5390625 C47.15464844 25.02117187 47.57101563 25.50328125 48 26 C48.66 26 49.32 26 50 26 C50 26.99 50 27.98 50 29 C49.34 29 48.68 29 48 29 C48.37125 29.928125 48.7425 30.85625 49.125 31.8125 C49.41375 32.864375 49.7025 33.91625 50 35 C49.34 35.99 48.68 36.98 48 38 C48.33 38.99 48.66 39.98 49 41 C46.14199525 46.06126659 41.87969155 51.35446197 36.8125 54.25 C31.58430197 55.64418614 26.86403036 55.56272615 21.6875 54 C17.91829986 51.19501385 16.11466083 48.4906738 15 44 C14.55127331 38.67304995 14.76699827 33.33315075 15 28 C13.60922699 27.17886823 12.21211107 26.36847505 10.8125 25.5625 C9.64654297 24.88380859 9.64654297 24.88380859 8.45703125 24.19140625 C6.02823985 22.884403 6.02823985 22.884403 3.26171875 22.46484375 C2.51535156 22.31144531 1.76898437 22.15804688 1 22 C-0.20029908 19.59940183 -0.11459743 18.10639351 -0.09765625 15.4296875 C-0.09443359 14.53378906 -0.09121094 13.63789063 -0.08789062 12.71484375 C-0.07951172 11.77769531 -0.07113281 10.84054687 -0.0625 9.875 C-0.05798828 8.93011719 -0.05347656 7.98523438 -0.04882812 7.01171875 C-0.03702357 4.67441613 -0.02055759 2.33723939 0 0 Z " fill="#B0AEAD" transform="translate(17,289)"/>
<path d="M0 0 C0 14.19 0 28.38 0 43 C-4.08396269 41.36641492 -6.42551949 40.12807106 -9.8125 37.5625 C-14.35252068 34.18939227 -18.95339894 30.93816383 -23.625 27.75 C-29.56826798 23.6832885 -35.48531397 19.58148962 -41.375 15.4375 C-42.1067041 14.92477539 -42.8384082 14.41205078 -43.59228516 13.88378906 C-44.27081543 13.40522461 -44.9493457 12.92666016 -45.6484375 12.43359375 C-46.24833496 12.01134521 -46.84823242 11.58909668 -47.46630859 11.15405273 C-49 10 -49 10 -51 8 C-51 7.01 -51 6.02 -51 5 C-50.43079834 4.9498877 -49.86159668 4.89977539 -49.27514648 4.84814453 C-46.66191893 4.61407662 -44.04976061 4.3696142 -41.4375 4.125 C-40.54224609 4.04636719 -39.64699219 3.96773437 -38.72460938 3.88671875 C-33.56383656 3.39521658 -28.94687607 2.52970731 -24 1 C-16.05762242 -0.38241712 -8.04489891 0 0 0 Z " fill="#E1E1E2" transform="translate(86,198)"/>
<path d="M0 0 C6.11606099 1.98604959 12.10241018 4.15130603 18.0625 6.5625 C18.908125 6.9032959 19.75375 7.2440918 20.625 7.59521484 C23.41878817 8.72499602 26.20976813 9.86146521 29 11 C30.01304199 11.41266113 31.02608398 11.82532227 32.06982422 12.25048828 C43.24230536 16.81418924 54.3190219 21.36281711 65 27 C65 30.63 65 34.26 65 38 C58.30228648 37.31305502 52.73231757 34.39294621 46.8125 31.375 C44.07294403 29.95463877 44.07294403 29.95463877 41.3125 29.125 C37.30497401 27.76395344 33.55753364 25.99367147 29.71875 24.21875 C27.53462761 23.23966065 25.37720626 22.36413274 23.125 21.5625 C18.32032192 19.83519838 13.75510527 17.59413604 9.1484375 15.40234375 C6.13972459 14.06223465 3.14049662 12.98553122 0 12 C0 8.04 0 4.08 0 0 Z " fill="#080808" transform="translate(291,21)"/>
<path d="M0 0 C11.05647552 -1.20040409 18.37006116 1.92716393 27.6875 7.1875 C28.93938308 7.87036008 30.19263718 8.55071284 31.44726562 9.22851562 C33.85978216 10.53474595 36.26499759 11.85303778 38.66552734 13.18115234 C43.05477616 15.57534649 47.5106516 17.80017657 52 20 C52 23.3 52 26.6 52 30 C48.30679614 28.58671773 44.81970213 26.94623396 41.30859375 25.12890625 C40.20749268 24.55930176 39.1063916 23.98969727 37.97192383 23.40283203 C36.80556396 22.79552246 35.6392041 22.18821289 34.4375 21.5625 C33.5456752 21.09937408 33.5456752 21.09937408 32.63583374 20.62689209 C21.66059913 14.92532307 10.79685623 9.03245103 0 3 C0 2.01 0 1.02 0 0 Z " fill="#DDDDDE" transform="translate(33,45)"/>
<path d="M0 0 C7.33770561 -0.44026234 11.86134031 0.30972027 17.625 5.25 C23.4183972 11.95814412 24.79791751 16.43861696 24.50390625 25.36328125 C23.19209576 34.83068875 18.36314681 41.47696213 11.1484375 47.4765625 C5.30766194 51.61820335 0.06152693 51.88916537 -7 51 C-10.56425364 49.67150546 -13.76986502 48.00096857 -17 46 C-17 45.34 -17 44.68 -17 44 C-17.66 44 -18.32 44 -19 44 C-24.12712585 35.06887755 -24.12712585 35.06887755 -24.09765625 30.6484375 C-24.09443359 29.79765625 -24.09121094 28.946875 -24.08789062 28.0703125 C-24.07951172 27.18085938 -24.07113281 26.29140625 -24.0625 25.375 C-24.05798828 24.4778125 -24.05347656 23.580625 -24.04882812 22.65625 C-24.03702591 20.43743352 -24.02056155 18.21874982 -24 16 C-20.59687262 17.05875074 -17.98646769 18.00902154 -15 20 C-15.165 20.94875 -15.33 21.8975 -15.5 22.875 C-16.48688874 30.1661929 -17.06306971 36.80128221 -13.25390625 43.37109375 C-10.72002391 46.66277267 -7.93782345 47.67824818 -3.9296875 48.34375 C2.38998632 48.78414539 6.91544926 46.62452914 12 43 C12.53882813 42.44957031 13.07765625 41.89914062 13.6328125 41.33203125 C15 40 15 40 17 40 C17.268125 39.319375 17.53625 38.63875 17.8125 37.9375 C19 35 19 35 20.625 31.75 C23.00020475 25.27216886 22.80084281 19.1469014 20.01953125 12.796875 C18.20012964 9.59026679 16.39167915 7.39196081 13 6 C8.96305113 5.60300758 5.04127545 5.70573237 1 6 C0.67 4.02 0.34 2.04 0 0 Z " fill="#575554" transform="translate(112,349)"/>
<path d="M0 0 C1.32 0 2.64 0 4 0 C3.7364299 7.80649882 3.46952369 15.61287878 3.20043945 23.41918945 C3.10929508 26.06759607 3.019339 28.71603525 2.92993164 31.36450195 C2.44929087 45.58770962 1.96133936 59.79986604 1 74 C-0.32 73.01 -1.64 72.02 -3 71 C-4.32 72.32 -5.64 73.64 -7 75 C-7.66 74.67 -8.32 74.34 -9 74 C-8.505 73.401875 -8.01 72.80375 -7.5 72.1875 C-5.71723582 70.02970006 -5.71723582 70.02970006 -6 67 C-5.34 67 -4.68 67 -4 67 C-4.00638992 65.81116463 -4.00638992 65.81116463 -4.01290894 64.59831238 C-4.03634734 56.86566906 -3.90495508 49.15332145 -3.6328125 41.42578125 C-3.59316376 40.29472458 -3.55351501 39.16366791 -3.51266479 37.99833679 C-3.42833338 35.63629076 -3.34255634 33.27429593 -3.25537109 30.91235352 C-3.16774929 28.49290867 -3.08448443 26.07330246 -3.00537109 23.65356445 C-2.89045829 20.13973897 -2.76312534 16.62656519 -2.6328125 13.11328125 C-2.59938751 12.02694901 -2.56596252 10.94061676 -2.53152466 9.82136536 C-2.49163422 8.82239731 -2.45174377 7.82342926 -2.41064453 6.79418945 C-2.37955597 5.91406693 -2.34846741 5.0339444 -2.31643677 4.12715149 C-2 2 -2 2 0 0 Z " fill="#85817C" transform="translate(353,233)"/>
<path d="M0 0 C0 0.33 0 0.66 0 1 C4.62 1 9.24 1 14 1 C9.32918036 4.11387976 4.32317458 3.74962183 -1.1875 4.125 C-2.7972168 4.25455078 -2.7972168 4.25455078 -4.43945312 4.38671875 C-10.84431792 4.84813268 -17.16300115 5.01322419 -23.57983398 4.93148804 C-41.45675975 4.7252949 -59.22539105 6.08562013 -77.04803467 7.31781006 C-84.04172903 7.80055206 -91.03611509 8.27279918 -98.03092384 8.73908997 C-100.43771584 8.90126356 -102.84405829 9.06913631 -105.25041199 9.2376709 C-113.84806765 9.82554479 -122.37606148 10.14877512 -131 10 C-131 9.67 -131 9.34 -131 9 C-115.20604991 6.71269966 -99.49185833 5.26935109 -83.5625 4.375 C-80.44670258 4.19389685 -77.33106587 4.0104377 -74.21556091 3.82437134 C-72.30467243 3.71085711 -70.39359747 3.60042022 -68.48231506 3.4937439 C-63.27964105 3.19158114 -58.16716967 2.67319582 -53 2 C-48.1300449 1.57502256 -43.25297963 1.25549008 -38.375 0.9375 C-37.35718948 0.87021698 -37.35718948 0.87021698 -36.31881714 0.80157471 C-24.20372344 0.01292026 -12.13933361 -0.22928437 0 0 Z " fill="#83807D" transform="translate(265,14)"/>
<path d="M0 0 C4.63935218 1.32552919 8.32436536 2.83187976 12 6 C12.3801259 8.91120815 12.44698478 11.01804639 12.1875 13.875 C11.76997532 19.43168642 12.15427231 23.07328797 15 28 C15 28.66 15 29.32 15 30 C21.10894098 32.5062322 26.83129506 33.01398558 33.125 31 C40.12828319 26.12815082 44.05539153 19.90106122 47 12 C47.91586866 14.5056784 48.07751859 15.74711149 47.28515625 18.33203125 C43.61652579 25.77477995 38.8175245 31.70291428 31 35 C24.13829302 36.57617794 18.32148781 36.1182771 12 33 C6.89963359 29.6318335 3.72583493 25.84811494 2 20 C1.45320439 14.50893988 1.80777875 9.3795349 3 4 C1.68 3.34 0.36 2.68 -1 2 C-0.67 1.34 -0.34 0.68 0 0 Z " fill="#4B4A47" transform="translate(21,311)"/>
<path d="M0 0 C1.59134766 -0.02126953 1.59134766 -0.02126953 3.21484375 -0.04296875 C6.0625 0.1875 6.0625 0.1875 9.0625 2.1875 C9.40307617 4.70947266 9.40307617 4.70947266 9.35546875 7.8515625 C9.34580078 8.97304688 9.33613281 10.09453125 9.32617188 11.25 C9.30103516 12.425625 9.27589844 13.60125 9.25 14.8125 C9.22969727 16.58753906 9.22969727 16.58753906 9.20898438 18.3984375 C9.17353916 21.32857539 9.12412769 24.25781459 9.0625 27.1875 C8.7325 27.1875 8.4025 27.1875 8.0625 27.1875 C8.0625 19.5975 8.0625 12.0075 8.0625 4.1875 C4.7625 4.5175 1.4625 4.8475 -1.9375 5.1875 C-1.9375 13.4375 -1.9375 21.6875 -1.9375 30.1875 C-3.5875 29.8575 -5.2375 29.5275 -6.9375 29.1875 C-7.9375 26.1875 -7.9375 26.1875 -7.90234375 23.6640625 C-7.8727061 20.57327853 -7.9973447 18.14165772 -8.9375 15.1875 C-12.00478203 12.73262752 -15.22317771 11.40763128 -18.9375 10.1875 C-18.2775 9.1975 -17.6175 8.2075 -16.9375 7.1875 C-11.9875 9.1675 -11.9875 9.1675 -6.9375 11.1875 C-6.9375 10.1975 -6.9375 9.2075 -6.9375 8.1875 C-7.5975 7.8575 -8.2575 7.5275 -8.9375 7.1875 C-8.5625 4.25 -8.5625 4.25 -7.9375 1.1875 C-5.2264923 -0.16800385 -3.02410831 0.01832793 0 0 Z " fill="#686664" transform="translate(363.9375,32.8125)"/>
<path d="M0 0 C2.375 0.3125 2.375 0.3125 5 1 C7 4 7 4 6.625 6.1875 C6.41875 6.785625 6.2125 7.38375 6 8 C-1.20284108 9.92075762 -10.24117783 12.05189679 -17.35546875 8.984375 C-17.89816406 8.65953125 -18.44085938 8.3346875 -19 8 C-18.25 3.25 -18.25 3.25 -16 1 C-12.875 1.375 -12.875 1.375 -10 2 C-10 2.66 -10 3.32 -10 4 C-6.7 3.34 -3.4 2.68 0 2 C0 1.34 0 0.68 0 0 Z " fill="#3B3B39" transform="translate(101,335)"/>
<path d="M0 0 C0.66 0.33 1.32 0.66 2 1 C2.144375 1.763125 2.28875 2.52625 2.4375 3.3125 C2.7903722 6.04660082 2.7903722 6.04660082 4.5625 7.875 C6.61317602 10.90643412 6.20587442 13.43151004 6 17 C5.34 15.68 4.68 14.36 4 13 C3.32195313 13.32613281 2.64390625 13.65226562 1.9453125 13.98828125 C-1.56207795 15.19307452 -4.42302506 15.23072901 -8.125 15.1875 C-9.34445313 15.18105469 -10.56390625 15.17460937 -11.8203125 15.16796875 C-15 15 -15 15 -18 14 C-18.3125 11.75 -18.3125 11.75 -18 9 C-13.89189189 5 -13.89189189 5 -11 5 C-11 6.32 -11 7.64 -11 9 C-7.7 8.67 -4.4 8.34 -1 8 C-0.40267181 5.23735711 0 2.83967231 0 0 Z " fill="#383736" transform="translate(37,279)"/>
<path d="M0 0 C0 0.33 0 0.66 0 1 C-13.74993114 2.70513658 -27.51384776 3.57283949 -41.34326172 4.30224609 C-42.06691422 4.34150711 -42.79056671 4.38076813 -43.53614807 4.42121887 C-45.52369784 4.52862639 -47.51147718 4.63176115 -49.49926758 4.73461914 C-52.72626041 4.97924856 -55.81146801 5.4654733 -59 6 C-63.71308845 6.39289189 -68.43363528 6.65774822 -73.1550293 6.92993164 C-75.39995247 7.0603192 -77.64427684 7.19874357 -79.88867188 7.33789062 C-89.27282871 7.89979993 -98.59860705 8.11632188 -108 8 C-108 7.67 -108 7.34 -108 7 C-96.25862121 5.50329856 -84.54608182 4.45090287 -72.734375 3.7109375 C-71.04101827 3.60196939 -69.3476796 3.49272048 -67.65435791 3.38320923 C-64.13856589 3.15685336 -60.62259174 2.93367079 -57.10644531 2.71289062 C-52.6361353 2.4319656 -48.16637079 2.14322215 -43.69671249 1.8521328 C-40.21188454 1.62601491 -36.72680797 1.40393452 -33.24164581 1.18303299 C-31.59440753 1.07818121 -29.94724344 0.97215604 -28.30016327 0.86484909 C-18.85241392 0.25192721 -9.47414887 -0.15353137 0 0 Z " fill="#B5B3B2" transform="translate(238,18)"/>
<path d="M0 0 C1.32 0.66 2.64 1.32 4 2 C3.47731534 4.76276177 2.89130413 7.3260876 2 10 C1.60967996 15.85480059 2.03450968 19.7609671 5 25 C9.80066451 30.28073096 15.15350437 31.50156768 22 33 C22 33.33 22 33.66 22 34 C15.40965317 34.54919557 10.40837917 33.99795872 5 30 C-3.35450946 22.06758249 -3.35450946 22.06758249 -4 17 C-3.96205624 10.72030832 -3.33777227 5.36945974 0 0 Z " fill="#393837" transform="translate(352,335)"/>
<path d="M0 0 C0.33 0 0.66 0 1 0 C1.28875 0.94875 1.5775 1.8975 1.875 2.875 C2.76825109 6.05211578 2.76825109 6.05211578 5 8 C5.26991906 10.68839385 5.08737357 13.29141936 5 16 C4.34 14.68 3.68 13.36 3 12 C2.01 12.33 1.02 12.66 0 13 C-7.24777936 13.61784349 -13.29196771 12.78259117 -20 10 C-18.47427344 6.67364118 -17.06655496 5.04436998 -14 3 C-13.01 4.485 -13.01 4.485 -12 6 C-9.57478506 6.58189266 -9.57478506 6.58189266 -6.875 6.6875 C-5.50988281 6.78611328 -5.50988281 6.78611328 -4.1171875 6.88671875 C-3.41851562 6.92410156 -2.71984375 6.96148437 -2 7 C-2 6.01 -2 5.02 -2 4 C-1.34 4 -0.68 4 0 4 C0 2.68 0 1.36 0 0 Z " fill="#353534" transform="translate(365,300)"/>
<path d="M0 0 C0 0.66 0 1.32 0 2 C-15.7629947 3.19743316 -31.52900987 4.24304063 -47.3125 5.125 C-48.09403442 5.16929138 -48.87556885 5.21358276 -49.68078613 5.25921631 C-51.92899617 5.38607511 -54.1773473 5.50999282 -56.42578125 5.6328125 C-57.71911377 5.70387207 -59.01244629 5.77493164 -60.3449707 5.84814453 C-63.90160336 5.99591192 -67.44078111 6.0269877 -71 6 C-70.67 5.34 -70.34 4.68 -70 4 C-67.10504796 3.54785998 -64.29079553 3.23623406 -61.375 3 C-60.46000732 2.92023926 -59.54501465 2.84047852 -58.60229492 2.75830078 C-55.40264008 2.48875108 -52.20190967 2.24129278 -49 2 C-47.76491699 1.90686523 -46.52983398 1.81373047 -45.25732422 1.71777344 C-30.17450533 0.60860441 -15.13228409 -0.37363664 0 0 Z " fill="#B0AEAD" transform="translate(249,19)"/>
<path d="M0 0 C0 0.66 0 1.32 0 2 C-13.40339409 3.2713613 -26.81272088 4.29771293 -40.25 5.125 C-41.30234329 5.19143707 -41.30234329 5.19143707 -42.37594604 5.25921631 C-50.58950099 5.77453799 -58.76769184 6.13669884 -67 6 C-66 4 -66 4 -63 3 C-61.39313886 2.83022959 -59.78119628 2.70652662 -58.16821289 2.61108398 C-57.18611343 2.55109726 -56.20401398 2.49111053 -55.19215393 2.42930603 C-54.1297197 2.36884598 -53.06728546 2.30838593 -51.97265625 2.24609375 C-50.3237162 2.14833397 -50.3237162 2.14833397 -48.64146423 2.04859924 C-46.30886303 1.91134248 -43.97614016 1.77614057 -41.64331055 1.64282227 C-38.10755181 1.44008325 -34.57233778 1.22934095 -31.03710938 1.01757812 C-28.76565329 0.8849314 -26.49416965 0.75275549 -24.22265625 0.62109375 C-23.17844009 0.55860947 -22.13422394 0.49612518 -21.05836487 0.43174744 C-14.03191539 0.03653963 -7.03693006 -0.06999219 0 0 Z " fill="#B0AEAD" transform="translate(142,26)"/>
<path d="M0 0 C1.32 0 2.64 0 4 0 C4 0.66 4 1.32 4 2 C9.28 2 14.56 2 20 2 C20 3.65 20 5.3 20 7 C23.3 7 26.6 7 30 7 C30 7.33 30 7.66 30 8 C13.17 8.99 13.17 8.99 -4 10 C-3.01 9.34 -2.02 8.68 -1 8 C-0.42251197 6.03638136 -0.42251197 6.03638136 -0.3125 3.875 C-0.209375 2.59625 -0.10625 1.3175 0 0 Z " fill="#73716F" transform="translate(225,74)"/>
<path d="M0 0 C0.33 0.66 0.66 1.32 1 2 C0.67 2.66 0.34 3.32 0 4 C-0.57425085 8.70697417 -0.45554552 12.12144792 1.75 16.375 C4.64794091 19.75593106 6.77537886 21.59179295 11 23 C16.04936467 23.29098034 21.08614397 23.31036161 26 22 C26 22.66 26 23.32 26 24 C11.67017666 28.29167298 11.67017666 28.29167298 5 26 C-0.34232201 22.88624897 -3.25133994 18.96601668 -5 13 C-5.2106156 10.27635736 -5.14417474 7.73932003 -5 5 C-4.01 5.495 -4.01 5.495 -3 6 C-2.01 4.02 -1.02 2.04 0 0 Z " fill="#8C8986" transform="translate(358,340)"/>
<path d="M0 0 C9.00833746 -0.83582513 14.86488675 0.29731479 22 6 C25.69850406 9.79096666 27.83499127 13.55457056 28.1953125 18.89453125 C28.17210937 19.85746094 28.14890625 20.82039063 28.125 21.8125 C28.10695313 22.78832031 28.08890625 23.76414062 28.0703125 24.76953125 C28.04710937 25.50558594 28.02390625 26.24164063 28 27 C27.34 27.33 26.68 27.66 26 28 C25.90203125 27.13117188 25.8040625 26.26234375 25.703125 25.3671875 C24.72387188 16.40476641 24.72387188 16.40476641 20 9 C13.96037159 4.50674988 7.31651078 4.24388369 0 4 C0 2.68 0 1.36 0 0 Z " fill="#262625" transform="translate(292,277)"/>
<path d="M0 0 C5.27059688 0.07516003 8.12551968 1.96180974 12.1875 5.1875 C13.7034375 6.363125 13.7034375 6.363125 15.25 7.5625 C19.1084568 11.01048268 21.17626657 14.14052589 22.1875 19.1875 C22.25298492 20.76961573 22.27328381 22.35420081 22.25 23.9375 C22.24097656 24.73671875 22.23195313 25.5359375 22.22265625 26.359375 C22.21105469 26.96265625 22.19945312 27.5659375 22.1875 28.1875 C21.8575 28.1875 21.5275 28.1875 21.1875 28.1875 C21.07792969 27.52363281 20.96835937 26.85976563 20.85546875 26.17578125 C19.72210431 19.86395487 18.6614202 15.46611071 13.8125 11 C9.45596778 7.99191823 5.62994148 6.94237529 0.375 6.5625 C-0.60082031 6.48773438 -1.57664062 6.41296875 -2.58203125 6.3359375 C-3.31808594 6.28695313 -4.05414063 6.23796875 -4.8125 6.1875 C-4.855221 4.52138095 -4.85313832 2.85367115 -4.8125 1.1875 C-3.8125 0.1875 -3.8125 0.1875 0 0 Z " fill="#363635" transform="translate(376.8125,319.8125)"/>
<path d="M0 0 C3.50779257 4.09242467 3.48992916 7.49672661 3.40234375 12.72265625 C3.20736788 15.15735497 2.7851769 16.70602887 1.25 18.625 C-0.875 19.375 -0.875 19.375 -2.75 19.625 C-2.234375 18.903125 -1.71875 18.18125 -1.1875 17.4375 C0.46442982 14.2054634 0.31351675 13.00891693 -0.75 9.625 C-0.09 9.625 0.57 9.625 1.25 9.625 C1.25 8.635 1.25 7.645 1.25 6.625 C0.26 6.955 -0.73 7.285 -1.75 7.625 C-2.36875 6.67625 -2.9875 5.7275 -3.625 4.75 C-6.34551583 0.52397209 -6.34551583 0.52397209 -10.875 -1 C-11.82375 -1.12375 -12.7725 -1.2475 -13.75 -1.375 C-15.32273568 1.4674854 -15.32273568 1.4674854 -15.75 4.625 C-16.41 4.625 -17.07 4.625 -17.75 4.625 C-19.10439668 1.91620665 -18.81501451 -0.38433268 -18.75 -3.375 C-17.02277272 -3.59884382 -15.29303993 -3.80339969 -13.5625 -4 C-12.11810547 -4.17402344 -12.11810547 -4.17402344 -10.64453125 -4.3515625 C-6.00317172 -4.38914436 -3.47366397 -2.99998252 0 0 Z " fill="#83817D" transform="translate(65.75,308.375)"/>
<path d="M0 0 C0.33 0.66 0.66 1.32 1 2 C5.62 2 10.24 2 15 2 C15.66 3.65 16.32 5.3 17 7 C9.84042507 10.69526448 2.39535532 9.15137609 -5 7 C-4.75 4.625 -4.75 4.625 -4 2 C-1.9375 0.6875 -1.9375 0.6875 0 0 Z " fill="#181817" transform="translate(272,258)"/>
<path d="M0 0 C0 5.94 0 11.88 0 18 C2.64 18 5.28 18 8 18 C8 18.33 8 18.66 8 19 C6.5629191 19.05422947 5.12524538 19.09289723 3.6875 19.125 C2.48673828 19.15980469 2.48673828 19.15980469 1.26171875 19.1953125 C-1 19 -1 19 -4 17 C-5.32 17.33 -6.64 17.66 -8 18 C-7.34 12.72 -6.68 7.44 -6 2 C-7.65 2 -9.3 2 -11 2 C-11 1.67 -11 1.34 -11 1 C-7.26513121 0.4254048 -3.78706732 0 0 0 Z " fill="#6A6865" transform="translate(276,242)"/>
<path d="M0 0 C5.33539772 0.32335744 8.511918 3.23088769 12 7 C16.84949122 13.23911151 16.94281093 20.38132578 16 28 C13.73700654 35.55137926 8.20700611 40.42641655 2 45 C-1.56045177 46.18681726 -4.43808337 46.09689832 -8.1875 46.0625 C-9.45980469 46.05347656 -10.73210937 46.04445313 -12.04296875 46.03515625 C-13.50669922 46.01775391 -13.50669922 46.01775391 -15 46 C-15 45.67 -15 45.34 -15 45 C-14.29875 44.97421875 -13.5975 44.9484375 -12.875 44.921875 C-4.54408311 44.42383106 1.55048366 42.97205214 7.3125 36.6875 C9.96660386 33.34636653 11.53324589 29.99283062 13 26 C13.66 26 14.32 26 15 26 C14.26184982 17.65126693 13.38325327 10.86452388 7 5 C4.71139648 3.39018069 2.53658177 2.21755925 0 1 C0 0.67 0 0.34 0 0 Z " fill="#666562" transform="translate(384,322)"/>
<path d="M0 0 C0.66 0 1.32 0 2 0 C1.835 0.515625 1.67 1.03125 1.5 1.5625 C0.36388641 7.10105377 0.47182606 11.53886633 3.6171875 16.421875 C6.82746727 20.08558412 10.71113713 21.64758778 15.4609375 22.37890625 C21.38981361 22.66166803 26.20851947 21.59361039 31 18 C34.08775397 14.26219256 35.67361293 10.64235474 37 6 C37.33 6 37.66 6 38 6 C37.46665441 12.66681989 35.54315374 16.59431403 30.6875 21.1875 C27.54931572 23.30394986 24.52007791 24.61957729 21 26 C21 26.33 21 26.66 21 27 C16.17639811 27.19294408 12.50353262 26.75747614 8 25 C8.33 24.34 8.66 23.68 9 23 C8.0925 22.46375 7.185 21.9275 6.25 21.375 C2.78328752 18.99266204 0.809207 16.89675354 -1 13 C-1.3698973 8.97280828 -1.38202998 5.02697178 -1 1 C-0.67 0.67 -0.34 0.34 0 0 Z " fill="#555452" transform="translate(278,293)"/>
<path d="M0 0 C3.9606826 2.64045506 4.03583918 4.40169457 5 9 C5.81222201 16.07793462 4.08393837 21.14952085 0 27 C-3.93976047 31.13450148 -7.79810662 34.18117888 -13.5625 34.9375 C-15.2640625 34.9684375 -15.2640625 34.9684375 -17 35 C-17.33 34.34 -17.66 33.68 -18 33 C-17.40832031 32.82984375 -16.81664062 32.6596875 -16.20703125 32.484375 C-10.61794598 30.77026728 -5.91539074 29.2826269 -2.8125 23.96484375 C-1.81350314 21.99806868 -0.87887991 20.02289677 0 18 C0.66 18 1.32 18 2 18 C2.20852314 11.59370576 2.1583195 6.07027358 0 0 Z " fill="#555452" transform="translate(317,286)"/>
<path d="M0 0 C4.4557301 0.69674544 8.47103131 2.24589361 12.625 3.9375 C13.62660156 4.33485352 13.62660156 4.33485352 14.6484375 4.74023438 C17.66766413 5.95698271 20.28120019 7.18746679 23 9 C23 9.99 23 10.98 23 12 C19.51423718 11.38965243 16.4128077 10.48391539 13.13671875 9.15234375 C12.25048828 8.79462891 11.36425781 8.43691406 10.45117188 8.06835938 C9.53916016 7.69517578 8.62714844 7.32199219 7.6875 6.9375 C6.75615234 6.56044922 5.82480469 6.18339844 4.86523438 5.79492188 C2.57521083 4.86716875 0.28690004 3.93541999 -2 3 C-1.34 2.01 -0.68 1.02 0 0 Z " fill="#969491" transform="translate(334,32)"/>
<path d="M0 0 C0 0.66 0 1.32 0 2 C-4.53043507 2.29171052 -9.06126029 2.57611102 -13.5925293 2.85449219 C-15.1255248 2.94961611 -16.65840961 3.04654557 -18.19116211 3.14550781 C-29.14297445 3.85091538 -40.0259261 4.12511018 -51 4 C-51 3.67 -51 3.34 -51 3 C-46.14841364 2.56431897 -41.29614702 2.13753628 -36.44311523 1.71826172 C-34.79935666 1.5750755 -33.15579181 1.4296439 -31.51245117 1.28173828 C-20.97215234 0.334947 -10.58615958 -0.21344259 0 0 Z " fill="#B5B3B2" transform="translate(130,25)"/>
<path d="M0 0 C1.14926266 0.95421808 2.29430541 1.91352045 3.4375 2.875 C4.07558594 3.40867187 4.71367188 3.94234375 5.37109375 4.4921875 C7 6 7 6 8 8 C7.99257205 11.72883263 7.92337896 15.44587161 7.78515625 19.171875 C7.69255963 24.28994272 8.31420571 27.49218445 11 32 C11.33 32.99 11.66 33.98 12 35 C12.66 35 13.32 35 14 35 C14 35.66 14 36.32 14 37 C14.721875 37.28875 15.44375 37.5775 16.1875 37.875 C20.09375 39.4375 20.09375 39.4375 24 41 C22.28125 41.66015625 22.28125 41.66015625 20 42 C14.30069358 39.42126453 9.84995266 35.58590721 7 30 C4.78526785 23.90948658 4.35102156 18.68862498 5.875 12.375 C5.91625 11.26125 5.9575 10.1475 6 9 C3.12016338 6.2806376 3.12016338 6.2806376 0 4 C0 2.68 0 1.36 0 0 Z " fill="#797774" transform="translate(81,358)"/>
<path d="M0 0 C0 0.66 0 1.32 0 2 C-3.2015845 2.92883727 -6.18879984 3.19022207 -9.515625 3.31640625 C-10.59537598 3.35838135 -11.67512695 3.40035645 -12.78759766 3.44360352 C-13.93019043 3.48283936 -15.0727832 3.5220752 -16.25 3.5625 C-17.41192871 3.6049585 -18.57385742 3.64741699 -19.77099609 3.69116211 C-28.51864963 3.99286813 -37.2479305 4.11898584 -46 4 C-46 3.67 -46 3.34 -46 3 C-41.09900158 2.24267745 -36.26432351 1.76253561 -31.30859375 1.46484375 C-30.24609154 1.40037804 -30.24609154 1.40037804 -29.16212463 1.33460999 C-27.67562954 1.24505345 -26.18904985 1.15689108 -24.70239258 1.07006836 C-22.44003835 0.93764857 -20.17802886 0.8002195 -17.91601562 0.66210938 C-5.8710767 -0.05841021 -5.8710767 -0.05841021 0 0 Z " fill="#B5B3B2" transform="translate(79,28)"/>
<path d="M0 0 C5.94384398 -0.49532033 10.03699847 0.63032651 15 4 C17.5 6.75 17.5 6.75 19 9 C16 9 16 9 13.4375 7.5 C8.86785549 5.50597331 4.91041138 5.737982 0 6 C0 4.02 0 2.04 0 0 Z " fill="#4F4E4C" transform="translate(47,298)"/>
<path d="M0 0 C2.97 0 5.94 0 9 0 C9 3.3 9 6.6 9 10 C5.59687262 8.94124926 2.98646769 7.99097846 0 6 C-0.1875 2.875 -0.1875 2.875 0 0 Z " fill="#E9E9EB" transform="translate(22,22)"/>
<path d="M0 0 C0.99 0.33 1.98 0.66 3 1 C2.67 1.804375 2.34 2.60875 2 3.4375 C0.51731834 8.71955342 -0.30680327 13.31209361 2.16796875 18.40234375 C4.98738359 22.75830343 8.17148017 26.50929074 12 30 C11.34 30.33 10.68 30.66 10 31 C-1.62423842 19.70788268 -1.62423842 19.70788268 -2.265625 13.37890625 C-2.26046875 12.44949219 -2.2553125 11.52007812 -2.25 10.5625 C-2.25515625 9.63566406 -2.2603125 8.70882813 -2.265625 7.75390625 C-1.98451512 4.83945824 -1.21247903 2.65109503 0 0 Z " fill="#2F2E2D" transform="translate(274,289)"/>
<path d="M0 0 C0 0.66 0 1.32 0 2 C-12.02039864 2.94014291 -23.94723146 3.11114233 -36 3 C-32.47148893 0.64765929 -30.6358771 0.61956566 -26.4375 0.375 C-25.47058228 0.31807983 -25.47058228 0.31807983 -24.48413086 0.26000977 C-16.32885066 -0.16737925 -8.16310095 -0.08415568 0 0 Z " fill="#B0AEAD" transform="translate(178,24)"/>
</svg>
